<?xml version="1.0" encoding="UTF-8"?>
<!DOCTYPE svg PUBLIC "-//W3C//DTD SVG 1.1//EN" "http://www.w3.org/Graphics/SVG/1.1/DTD/svg11.dtd">
<!-- Creator: CorelDRAW -->
<svg xmlns="http://www.w3.org/2000/svg" xml:space="preserve" width="50.2mm" height="50.2mm" version="1.1" style="shape-rendering:geometricPrecision; text-rendering:geometricPrecision; image-rendering:optimizeQuality; fill-rule:evenodd; clip-rule:evenodd"
viewBox="0 0 284.14 284.14"
 xmlns:xlink="http://www.w3.org/1999/xlink"
 xmlns:xodm="http://www.corel.com/coreldraw/odm/2003">
 <defs>
  <style type="text/css">
   <![CDATA[
    .str0 {stroke:black;stroke-width:1.13;stroke-miterlimit:22.9256}
    .fil0 {fill:black}
    .fil1 {fill:white}
   ]]>
  </style>
 </defs>
 <g id="Camada_x0020_1">
  <metadata id="CorelCorpID_0Corel-Layer"/>
  <circle class="fil0 str0" cx="142.07" cy="142.07" r="141.5"/>
  <path class="fil1" d="M155.9 104.94l0 -14.91c0,-7.14 4.81,-8.85 8.24,-8.85 3.26,0 20.81,0 20.81,0l0 -31.85 -28.74 0c-31.85,0 -39,23.61 -39,38.84l0 16.78 -18.48 0 0 37.13 18.64 0c0,42.1 0,92.75 0,92.75l37.13 0c0,0 0,-51.27 0,-92.75l27.51 0 1.23 -14.6 2.18 -22.53 -29.52 0z"/>
 </g>
</svg>
