<?xml version="1.0" encoding="UTF-8"?>
<!DOCTYPE svg PUBLIC "-//W3C//DTD SVG 1.1//EN" "http://www.w3.org/Graphics/SVG/1.1/DTD/svg11.dtd">
<!-- Creator: CorelDRAW -->
<svg xmlns="http://www.w3.org/2000/svg" xml:space="preserve" width="50.2mm" height="50.2mm" version="1.1" style="shape-rendering:geometricPrecision; text-rendering:geometricPrecision; image-rendering:optimizeQuality; fill-rule:evenodd; clip-rule:evenodd"
viewBox="0 0 372.7 372.7"
 xmlns:xlink="http://www.w3.org/1999/xlink"
 xmlns:xodm="http://www.corel.com/coreldraw/odm/2003">
 <defs>
  <style type="text/css">
   <![CDATA[
    .str0 {stroke:black;stroke-width:1.48;stroke-miterlimit:22.9256}
    .str1 {stroke:white;stroke-width:1.48;stroke-miterlimit:22.9256}
    .fil0 {fill:black}
    .fil1 {fill:white;fill-rule:nonzero}
   ]]>
  </style>
 </defs>
 <g id="Camada_x0020_1">
  <metadata id="CorelCorpID_0Corel-Layer"/>
  <circle class="fil0 str0" cx="186.35" cy="186.35" r="185.61"/>
  <polygon class="fil1 str1" points="186.35,186.35 186.35,186.35 "/>
  <path class="fil1" d="M289.36 162.17c0.8,-0.04 1.6,-0.1 2.39,-0.16l0 -39.91c-15.88,-1.32 -30.2,-8.16 -41,-18.62 -10.81,-10.47 -18.1,-24.57 -19.92,-40.41l-34.13 0 -0.37 172.44c0,10.7 -4.66,20.28 -11.98,27.23 -7.51,7.13 -17.81,11.5 -28.77,11.5 -10.82,0 -20.63,-4.39 -27.72,-11.49 -7.1,-7.09 -11.49,-16.9 -11.49,-27.72 0,-10.82 4.39,-20.63 11.49,-27.72 7.09,-7.09 16.9,-11.48 27.72,-11.48 1.22,0 2.39,0.16 3.57,0.32l0.34 0.05 0 -35.6 -0.4 -0.03c-1.16,-0.08 -2.32,-0.16 -3.51,-0.16 -20.6,0 -39.26,8.35 -52.76,21.86 -13.5,13.5 -21.86,32.16 -21.86,52.76 0,20.6 8.36,39.26 21.86,52.76 13.5,13.5 32.16,21.86 52.76,21.86 20.6,0 39.26,-8.35 52.76,-21.86 13.5,-13.5 21.86,-32.16 21.86,-52.76l0 -104.46 1.36 2.08c6.05,9.23 14.23,16.64 23.65,21.73 9.42,5.09 20.09,7.88 31.13,7.88l0.06 0c0.97,-0 1.96,-0.03 2.95,-0.08z"/>
 </g>
</svg>
