<?xml version="1.0" encoding="UTF-8"?>
<!DOCTYPE svg PUBLIC "-//W3C//DTD SVG 1.1//EN" "http://www.w3.org/Graphics/SVG/1.1/DTD/svg11.dtd">
<!-- Creator: CorelDRAW -->
<svg xmlns="http://www.w3.org/2000/svg" xml:space="preserve" width="50.2mm" height="50.2mm" version="1.1" style="shape-rendering:geometricPrecision; text-rendering:geometricPrecision; image-rendering:optimizeQuality; fill-rule:evenodd; clip-rule:evenodd"
viewBox="0 0 440.47 440.47"
 xmlns:xlink="http://www.w3.org/1999/xlink"
 xmlns:xodm="http://www.corel.com/coreldraw/odm/2003">
 <defs>
  <style type="text/css">
   <![CDATA[
    .str0 {stroke:black;stroke-width:1.75;stroke-miterlimit:22.9256}
    .str1 {stroke:white;stroke-width:1.75;stroke-miterlimit:22.9256}
    .fil0 {fill:black}
    .fil1 {fill:white}
   ]]>
  </style>
 </defs>
 <g id="Camada_x0020_1">
  <metadata id="CorelCorpID_0Corel-Layer"/>
  <circle class="fil0 str0" cx="220.23" cy="220.23" r="219.36"/>
  <g id="_1862103857856">
   <path class="fil1 str1" d="M240.2 132.6c1.52,-1.5 -0.3,-0.2 1.65,-1.25 1.59,-0.86 0.61,-0.1 2.01,-0.79 0.2,-0.1 0.46,-0.24 0.65,-0.34l2.42 -1.48c-0.45,2.63 -0.55,2.81 -2.93,3.97 -3.97,1.94 -2.59,0.68 -3.81,-0.1zm-7.4 -11.87c0.29,-1.84 -1.17,0.01 0.85,-0.58 1.29,-0.38 -1.2,2.8 -0.85,0.58zm0.49 -16.2c2.9,4.37 0.82,0.94 0.05,2.29l-0.05 -2.29zm3.11 -4.54c-0.08,0.19 -0.17,2.53 -2.5,3.35 -5.17,1.83 -1.62,-0.01 -2.93,-0.95 2.6,-3.25 -3.57,-1.77 5.43,-2.4zm-31.83 2.7l-2.38 -0.19c-4.31,9.96 -8.35,21.99 -12.35,32.64 -2.17,5.78 -9.68,29.68 -13.43,32.21 -3.19,0 -10.96,-1.41 -11.88,1.63 2.85,1.23 18.81,0.46 24.48,0.55 3.84,0.06 6.16,0.97 7.62,-1.51 -4.03,-1.74 -11.22,-0.44 -16.18,-0.88l15.44 -41.4 34.74 -0.04 15.16 40.37 0.56 1.3 -15.98 0.49c4.63,2.74 16.01,1.01 22.27,0.99 7.66,-0.02 15.75,0.51 23.31,-0.33 -2.08,-2.33 -9.07,-1.12 -12.69,-1.32l-15.55 -38.84 -2.82 -0.65 0.48 -3.87c0.03,-4.71 -8.31,-23.71 -10.72,-29.99l-2.61 0.79 -0.57 1.89 -2.39 0.46 -1.52 0.02c-0.62,-1.18 -2.92,1.45 0.21,-3.36l-3.7 -0.61 -0.15 -0.15c-4.29,0.46 -3.65,-1.06 -4.95,1.02l10.47 29.6 -32.48 -0.07 7.63 -20.75z"/>
   <path class="fil1 str1" d="M208.33 86.5l1.89 -0.75 -0.23 1.93 2.98 -6.81 3.75 8.92c-0.49,-5.2 -0.57,-1.81 1.23,-3l2.63 3.27c3.04,0.51 2.27,0.3 3.32,2.83l0.15 0.15 4.63 -1.39 0.27 -1.93 1.78 0.08 1.67 -2.59 -9.02 -24.32c-3.58,0.25 -3.08,0.65 -6.18,0.87 -1.55,2.47 -8,19.71 -8.85,22.75z"/>
   <path class="fil1 str1" d="M275.94 168.52c-7.55,0.84 -15.65,0.31 -23.31,0.33 -6.26,0.01 -17.64,1.75 -22.27,-0.99l15.98 -0.49 -0.56 -1.3c-4.37,2.57 -11.66,-1 -16.23,1.94 1.68,3.17 13.1,1.85 20.19,1.84 7.72,-0.02 15.44,0.03 23.16,0.01 5.68,-0.14 1.16,0.19 3.04,-1.33z"/>
   <path class="fil1 str1" d="M230.72 89.79l-0.71 1.98c0.37,0.42 0.99,1.58 1.35,2.02l0.66 0.85 2.61 -0.79 -2.25 -6.65 -1.67 2.59z"/>
   <path class="fil1 str1" d="M230.97 102.39c1.31,0.94 -2.24,2.78 2.93,0.95 2.33,-0.82 2.42,-3.17 2.5,-3.35 -9,0.63 -2.83,-0.85 -5.43,2.4z"/>
   <path class="fil1 str1" d="M217.18 63.76c3.1,-0.22 2.6,-0.62 6.18,-0.87 -1.75,-3.34 -0.59,-2.8 -4.5,-2.81l-1.68 3.68z"/>
   <path class="fil1 str1" d="M224.05 93.04l3.7 0.61c-3.13,4.81 -0.83,2.18 -0.21,3.36l1.52 -0.02 1.04 -3.16c-1.3,-0.43 -0.45,1.48 -1.42,-2.18l-4.63 1.39z"/>
   <polygon class="fil1 str1" points="202.18,102.49 204.57,102.69 206.59,97.52 204.27,96.72 "/>
   <path class="fil1 str1" d="M240.2 132.6c1.22,0.79 -0.16,2.04 3.81,0.1 2.37,-1.16 2.47,-1.34 2.93,-3.97l-2.42 1.48c-0.19,0.1 -0.45,0.24 -0.65,0.34 -1.4,0.7 -0.42,-0.06 -2.01,0.79 -1.95,1.05 -0.13,-0.25 -1.65,1.25z"/>
   <path class="fil1 str1" d="M216.73 89.79l0.87 0.96 2.16 0.89c1.54,-1.1 0.34,0.81 0.83,-1.58l-2.63 -3.27c-1.8,1.19 -1.72,-2.2 -1.23,3z"/>
   <path class="fil1 str1" d="M217.6 90.75l1.35 3.16c1.3,-2.08 0.66,-0.57 4.95,-1.02 -1.05,-2.53 -0.28,-2.32 -3.32,-2.83 -0.49,2.39 0.71,0.48 -0.83,1.58l-2.16 -0.89z"/>
   <path class="fil1 str1" d="M205.36 92.64l2.61 -1.07 0.41 1.77 1.72 -3.5c0.07,-0.15 0.19,-0.47 0.31,-0.7l-2.54 0.16 0.39 -2.56 -2.89 5.89z"/>
   <polygon class="fil1 str1" points="205.36,92.64 205.45,94.46 207.71,96.17 208.37,93.35 207.96,91.58 "/>
   <path class="fil1 str1" d="M247.7 128.36c-0.75,-2.21 0.04,-1.23 -0.86,-2.84 -1.08,-1.91 0.06,-0.46 -1.48,-1.68l-0.48 3.87 2.82 0.65z"/>
   <path class="fil1 str1" d="M228.68 91.64c0.97,3.67 0.12,1.76 1.42,2.18l1.26 -0.04c-0.35,-0.45 -0.98,-1.6 -1.35,-2.02l0.71 -1.98 -1.78 -0.08 -0.27 1.93z"/>
   <polygon class="fil1 str1" points="210.4,89.15 209.99,87.69 210.22,85.76 208.33,86.5 208.25,86.75 207.86,89.31 "/>
   <path class="fil1 str1" d="M204.27 96.72l2.32 0.8c1.28,-0.49 0.37,2.25 1.12,-1.35l-2.26 -1.7 -1.18 2.26z"/>
   <polygon class="fil1 str1" points="229.06,96.99 231.45,96.53 232.03,94.64 231.36,93.79 230.1,93.83 "/>
   <path class="fil1 str1" d="M233.34 106.82c0.77,-1.35 2.86,2.09 -0.05,-2.29l0.05 2.29z"/>
   <path class="fil1 str1" d="M232.8 120.73c-0.36,2.21 2.13,-0.96 0.85,-0.58 -2.02,0.59 -0.55,-1.25 -0.85,0.58z"/>
  </g>
  <g id="_1862103832992">
   <path class="fil1 str1" d="M307.52 326.67c0.39,1.14 -0.34,0.22 0.81,1.38l0.65 2.49 -2.28 0.59 0.52 0.54c2.01,1.73 1.26,0.66 2.23,2.33 -1.96,0.19 -2.83,0.45 -3.98,-1.15 -0.81,-1.12 -0.27,-1.3 -2.04,-3.14 2.49,-1.96 0.61,-1.91 4.09,-3.05zm-10.13 0.96c0.93,-1.24 -1.28,-0.31 2.14,-1.34 0.79,-0.24 1.27,-0.43 2.33,-0.67 1.07,1.94 1.65,2.86 0,5.01 -0.33,-0.75 -0.15,-0.69 -1.72,-1.44 0.4,-1.33 -0.02,-0.54 0.81,-1.42 -2.58,-0.38 -2.06,0.62 -3.57,-0.14zm-3.52 -4.08c0.8,-2.4 0.21,-1.85 3.31,-1.9 -0.23,0.74 0.1,1.59 -1.71,2.02 -0.11,0.03 -0.27,0.05 -0.38,0.06 -1.09,0.11 -0.26,0.08 -1.21,-0.19zm59.42 -1.41l2.04 -0.22c-1,1.11 -2.39,2.93 -4.52,2.06 0.64,-2.1 0.79,0.4 1.82,-3.02 0.26,-0.86 0.04,-0.61 0.36,-1.18l1.48 0.32c-1.16,0.9 -0.82,0.78 -1.18,2.04zm-67.28 -12.2l2.01 1 -0.79 2.16 -3.07 -1.2c-0.64,-1.62 -0.41,0.85 -0.44,-1.95l2.29 -0.01zm69.52 0.41c-2.12,0.84 -0.58,-0.09 -1.08,1.1 -5.35,-2.24 -2.63,-0.69 -7.79,-1.98 0.16,-1.8 -0.18,-1.19 1.05,-2.21 0.06,-0.05 0.2,-0.11 0.26,-0.15 0.05,-0.04 0.2,-0.09 0.25,-0.12 0.05,-0.03 0.19,-0.08 0.23,-0.1 1.45,-0.82 -0.92,1.45 0.56,-0.37l1.61 2.13c0.5,0.4 1.66,0.53 2.37,0.63l1.56 -1.49 0.97 2.57zm-73.75 -8.57c-0.3,-0.78 -0.84,1.14 -0.28,-1.25 0.39,-1.63 2.46,-2.17 3.86,-2.36 -0.45,2.26 -1.81,3.77 -3.58,3.61zm107.72 -5.37c0.57,0.85 0.12,-0.83 0.59,0.9 0.58,2.16 0.06,0.98 -0.07,1.37 -0.79,-0.79 -1.62,-0.82 -0.52,-2.27zm-4.16 2.72c-0.74,-1.11 -1.22,-2.99 -0.65,-3.9 0.63,-0.99 0.36,-0.46 1.38,-1.05 0.18,2.06 -0.32,3.15 -0.73,4.95zm-1.53 -2.8l-1.5 0.24c1.04,-1.08 -1.33,-0.52 0.58,-0.55 1.37,-0.02 0.16,-0.22 0.92,0.31zm-98.13 -2.39c0.67,-0.84 -0.37,-1.97 1.56,-1.26 -0.51,1.5 1.47,0.34 -1.56,1.26zm-7.58 0.5c0.44,-1.26 0.28,-1.71 1.72,-1.25 -0.63,1.39 0.37,1.23 -1.72,1.25zm87.77 -2.08c1.37,-0.05 2.83,-0.46 2.9,0.08l0.65 1.45c0.85,1.4 0.34,-0.32 1.4,1.97 2.36,-0.52 1.26,-0.95 2.75,0.19 -0.45,0.75 -0.8,1.32 -1.04,2.44 -5.2,-1.62 -5.37,-2.7 -6.66,-6.13zm-82.66 0.18l0.16 -3.35c-0.04,-1.7 -0.34,-1.3 0.57,-2.59 2.97,-0.82 3.91,0.5 4.67,0.9 -1,2.18 -1,1.61 -2.82,2.63l-2.58 2.41zm-6.94 -2.63c-0.06,0.01 -0.25,0.03 -0.31,0.04l-0.55 -0.11c-0.38,-0.02 -1.65,1.12 -1.06,-1.34 1.42,-1.02 -1.92,-0.72 1.8,-0.87l0.12 2.28zm11.74 -2.2c-0.11,-2.45 -0.47,-1.48 2.03,-2 -0.43,2.7 0.22,1.56 -2.03,2zm89.95 -0.79c-0.08,0.08 -0.2,0.2 -0.27,0.27 -0.23,0.24 -0.65,0.63 -0.72,0.71 -1.07,-1.13 -0.78,-0.9 -0.62,-1.84l2.51 -0.13c-0.1,0.12 -0.24,0.27 -0.31,0.35l-0.59 0.63zm-101 -4.41c2.33,0.78 1.71,-0.49 2.64,1.3 -0.93,0.77 -0.02,0.49 -1.73,0.78 -1.81,0.3 -3.78,0.54 -5.58,0.1 2.43,-2.85 1.79,0.21 3.09,-2.78l1.58 0.6zm-10.88 2.09c-2.66,-0.06 -1.64,0.42 -2.12,-1.76 3.13,0.5 1.42,0 2.12,1.76zm115.99 -0.05c0.05,-0.17 0.14,-0.38 0.18,-0.49 0.04,-0.1 0.12,-0.32 0.16,-0.44l0.79 -1.63c0.03,-0.18 0.19,-0.21 0.29,-0.3 0.77,1.5 0.77,0.7 1.56,2.25l-2.98 0.61zm-94.12 -7.24c0.65,-2.95 -0.74,-1.59 2.31,-2.18 -0.53,2.5 0.26,1.79 -2.31,2.18zm0.85 -9.57c-0.12,-0.07 -0.27,-0.25 -0.29,-0.31 -1.1,-3.19 -0.7,0.48 0.48,-0.98l-0.2 1.3zm80.03 -3.46c-0.05,-0.16 -0.17,-0.19 -0.31,-0.34l0.79 -1.17c1.37,1.05 1.76,-1.71 1.03,2.15l-1.5 -0.65zm-99.2 -2.38c0.11,-0.11 0.25,-0.27 0.32,-0.36l1.25 -1.55c0.05,-0.05 0.25,-0.06 0.29,-0.22 0.04,-0.17 0.21,-0.14 0.32,-0.2 0.04,0.16 0.38,1.12 0.37,1.22 -0,0.04 -0.34,0.73 -0.58,1.11l1.81 1.68 -1.92 0.83c-0.1,-0.14 -0.22,-0.46 -0.28,-0.56l-1.59 -1.95zm-5.62 -1.04c0.72,-2.28 0.41,-2.11 0.68,-3.67 2.22,0.46 2.56,-0.19 1.16,4.83l-1.47 -0.88c-0.06,-0.19 -0.25,-0.18 -0.37,-0.27zm104.09 0.59c0.63,-1.81 5.13,-2.48 7.82,-1.5 0.5,-4.32 -0.37,0.38 -0.38,-2.89l0.19 -0.89c0.01,-0.25 0.09,-0.32 0.18,-0.45l1.1 3.24 2.55 0.01c0.07,0.15 0.11,0.35 0.17,0.46 0.06,0.11 0.12,0.31 0.2,0.44l1.35 1.41c0.03,-0.03 1.5,-0.98 2.86,-0.3 -1.92,1.5 -3.89,1.32 -5.49,0.33 -0.08,-0.05 -0.2,-0.17 -0.27,-0.22 -2.54,-1.88 -3.95,-0.25 -6.11,1.3 -0.87,-0.73 -0.79,0.06 -1.16,-1.25 -0.13,0.12 -0.39,0.55 -0.49,0.66 -1.66,1.91 0.18,0.56 -1.6,1.16l-0.92 -0.01c-0.29,-1.26 -1.05,1.57 0.01,-1.49zm20.28 -4.05l0.55 0.33c-0.11,2.35 0.51,0.82 -0.57,2.04 -0.9,1.01 -0.39,0.52 -1.74,0.59 -1.71,0.39 -0.79,0.25 -2.97,-0.45 0.99,-1.22 -1.28,-0.21 1.29,-1.14 -1.33,-2.24 -0.38,-1.58 0.07,-2.06 3.56,0.11 -1.75,-0.07 3.38,0.69zm-72.42 -0.07c1.03,0.29 3.35,1.56 4.21,2.41 1.01,1.01 1.69,2.47 2.09,4.04l-2.98 0.3 1.22 1.71c1.28,2.05 -0.49,-2.19 0.68,1.32 1.64,3.57 1.48,-3.7 1.78,8.71 -1.45,-1.26 0.26,1 -1.48,-0.79 1.9,3.99 1.35,2.36 1.36,8.26 0.01,3 -0.21,5.51 0.95,7.75 2.98,0.68 8.53,-1.53 4.92,0.77 -0.57,0.36 -1.61,0.72 -2.3,0.88 -5.88,1.38 -8.79,-0.83 -10.59,-5.65 -2.4,3.29 -3.06,5.53 -8.91,5.96 -4.2,0.31 -9.53,-0.52 -10.82,-3.2 -0.38,-0.44 -0.37,-0.22 -0.81,-1 -0.59,-1.03 0.46,1.41 -0.33,-0.72 -0.42,-1.14 -0.22,-0.83 -0.41,-2.01 -0.03,-2.38 0.05,-4.53 1.49,-5.64 1.01,-1.61 0.68,-1.38 2.4,-2.32 4.82,-2.88 14.79,-3.41 16.85,-7.84 0.56,-1.98 1.14,-3.81 1.39,-5.61 -0.69,-0.51 -0.34,0.03 -0.78,-1.23 -0.08,-0.22 -0.22,-1.02 -0.27,-1.32 -0.22,-1.15 -0.36,-2.04 -0.43,-2.93l-0.64 -0.54c-0.09,-0.07 -0.2,-0.2 -0.3,-0.27 -0.13,-0.09 -0.48,-0.41 -0.63,-0.49l-0.8 -0.3c-1.86,-0.5 -2.6,0.42 -3.85,-0.95 2.02,-1.46 5.41,-0.63 7.01,0.69zm-12.17 6.14c0.99,5.53 -2.13,6.17 -6.23,4.31 -0.38,-1.62 -1.03,-4.43 0.51,-5.63 0.63,-1.94 0.09,-1.58 1.6,-2.93 1.89,-1.68 5.38,-3.49 7.53,-2.04 -3.09,1.81 -3.59,1.12 -3.41,6.29zm-13.26 -6.41c0.9,-0.87 0.25,-1.13 2.28,-0.95 1.33,0.12 3.28,0.93 3.86,1.99 -0.42,0.47 0.66,0.97 -1.7,1.17 -1.64,0.15 -1.11,-1.08 -3.19,-1.6l-1.25 -0.62zm72.53 -5.26c-1.4,-0.35 -0.24,-0.06 -0.84,-0.85 0.71,-0.71 0.07,-1.98 1.93,-0.94 1.04,0.58 0.82,2.25 -1.08,1.78zm19.96 -1.89c1.57,-0.88 1.52,-0.4 2.41,0 -2.37,1.68 -2.14,0.16 -2.41,0zm-12.82 0c-1.42,0.95 -0.18,0.75 -1.98,0.37 0.05,-0.22 0.72,-0.6 1.04,-0.66 1.26,-0.24 0.64,0.12 0.94,0.29zm19.28 -0.8c-0.48,1.34 0.24,1.46 -1.83,0.92 -2.59,-0.68 -0.75,0.28 -1.85,-0.65 0.55,-1.29 2.6,-0.82 3.68,-0.27zm-14.02 0.03c0.59,-2.51 0.39,-1.7 2.33,-2.61 -0.52,2.6 0.2,1.75 -2.33,2.61zm-4.64 -2.61c-2.01,-0.69 -0.75,-0.39 -2.54,-0.51 -1.72,-0.12 -0.91,0.18 -1.99,-0.81l2.06 -1.18c1.73,-0.32 -1.25,-0.59 0.69,0.16l0.6 0.46c0.64,-1.21 0.24,-1 1.77,-1.4 0.97,-0.2 2.69,-0.4 4.03,-0.69 2.17,-0.47 1.29,-0.8 2.62,0.57 -1.69,2.75 -3.27,0.5 -4.76,0.97 1.01,0.64 1.44,-0.57 0,0.99l-1.17 2.28c-1.08,-0.32 -0.74,-0.11 -1.32,-0.83zm-96 -7l4.56 0.09c-0.92,1.34 -0.25,0.92 -1.95,1.62l-2.29 0.86 -0.31 -2.57zm90.65 -8.03c1.36,0.89 1.26,0.2 0.52,1.91 -0.96,-0.58 -0.43,0.24 -0.86,-0.86 -0.88,-2.25 0.02,-0.5 0.34,-1.05zm-5.7 0.68c1.74,-1.48 -2.09,-1 1.46,-1.52 -0.66,1.74 0.72,0.37 -1.46,1.52zm-81.28 0.96c0.7,0.49 0.34,0.2 1.23,0.32l-0.65 -2c-0.03,-0.19 -0.15,-0.22 -0.23,-0.33 3.4,-0.76 0.79,-0.15 2.43,-1.19l6.14 1.5 -0.23 1.78c-1.45,0.67 -1.9,0.65 -3.32,-0.3 -2.98,-1.99 1.81,0.53 -0.82,-0.66 -0.84,0.71 -4.87,3.44 -4.83,0.32 -0.01,0.1 -1.02,-0.34 0.26,0.56zm97.99 -3.61c2.56,-0.24 1.03,0.2 1.57,0.57l-1.89 0.16c0.08,0.16 0.33,0.81 0.33,0.92 -0.07,1.83 0.09,0.26 -0.58,1.07 -1.15,-1.53 -0.74,-0.45 -0.87,-2.01 0.21,-0.32 0.74,-0.63 1.44,-0.69zm-27.01 -0.27c0.36,-2.08 -0.01,-1.66 0.88,-3.34l2.28 1.43c-1.31,0.48 -0.41,0.27 -1.04,0.85 -1.15,1.06 -0.16,0.76 -2.12,1.06zm-13.2 -7.4c-0.77,1.53 -0.06,2.72 -2.53,2.06 -2.09,-0.56 -0.89,-4.36 2.14,-3.38 1.06,0.34 -0.02,0.45 1.07,0.3l1.99 0.85c-0.75,1.32 -0.56,0.87 -1.6,2 -0.2,-0.52 -0.06,-0.43 -0.35,-0.98 -0.49,-0.91 -0.2,-0.38 -0.71,-0.86zm-12.34 -8.45c1.01,0.18 0.54,-0.29 1.76,0.69 1.05,0.85 0.98,1.23 0.48,3.11 -0.03,0.11 -0.25,0.65 -0.3,0.82 2.34,1.01 1.41,-0.52 3.35,1.56 -1.26,-0.23 -1.15,-0.16 -2.27,-0.24 -1.02,-0.07 -1.02,0.19 -1.46,-0.85 -1.67,-3.99 -2.61,-2.22 -1.56,-5.09zm-19.39 -4.18c1.12,-0.94 2.05,-1.12 3.65,-1.26 0.04,0.81 0.58,2.42 -1.04,2.65 -1.15,0.17 0.11,-0.01 -0.65,-0.17 -0.07,-0.01 -0.21,-0.1 -0.28,-0.12 -1.99,-0.57 -1.29,-0.11 -1.68,-1.1zm16.09 7.64c-2.06,-0.9 -0.82,1.48 -1.64,-2.2l-0.6 -8.2c2.59,0.87 0.21,0.39 2.52,0.74 0.7,0.11 0.43,-0.35 1.99,0.76 -1.21,3 -2.93,3.44 -2.98,0.61l0.24 1.94c0.13,3.83 1.84,3.94 0.47,6.35zm18.26 -14.7c0.38,0.79 0.37,0.2 0.36,1.21 -0.01,0.87 -0.11,0.43 -0.54,1 -2.33,-3.48 0.15,-2.18 0.18,-2.21zm-37.15 7.06c2.25,0.6 0.65,0.05 1.33,1.04 -2,0.7 -0.84,-0.61 -1.73,0.97 1.3,0.2 0.27,-0.46 1.62,0.48l-3.2 4.21c-2.15,-0.68 -1.33,-0.28 -3.65,-2.68 -1.26,1.47 -3.08,3.03 -4.04,0.74l0.15 -1.11c-0.69,-0.76 0.32,-0.22 -1.57,-0.17 -1.32,3.2 -0.26,-0.56 -2.33,2.32 -1.02,1.42 0.03,1.74 -2.33,2.38 -2.23,0.61 -5.31,-0.59 -4.43,0.92 0.91,1.56 -1.56,-1.05 0.4,0.35l0.98 0.45c-2.47,1.2 0.27,-1.07 -2.34,0.48 0.72,0.85 0.71,1.12 1.32,2.04l-3.41 1.24c0.23,1.43 0.51,1.24 0.59,2.11l-3.36 1.95c0.52,2.74 0.51,0.84 -0.05,3.55 -3,0.06 -3.51,-1.41 -6.91,3.53 -0.91,1.31 -0.75,1.03 -0.91,2.96 3.25,-0.35 2.19,-0.83 5.47,0.27l-5.7 0.88c-2.04,9.32 -5.36,2.66 -4.21,11.49 5.37,0.25 -3.17,-0.79 3.89,-0.75l1.44 -0.01c0.03,-0.09 0.18,0 0.26,0.05 0.45,0.61 -2.78,3.61 -2.89,3.39 -0.05,-0.1 -0.23,0.14 -0.34,0.21l4.54 2.13 0.91 0 0.26 -0.63 2.17 -0.42 2.33 -0.67c-0.22,2.69 -0.01,1.92 -0.75,2.74l-0.75 0.86 -0.29 1.31c-1.13,0.45 -2.12,0.16 -2.21,-0.03 -0.08,-0.17 -0.26,-0.16 -0.39,-0.21 -1.2,1.67 -0.35,1.3 -2.09,1.67 -2,-1.23 -0.97,0.45 -1.12,-1.7 -2.9,-0.07 -1.66,0.66 -2.36,-1.17 0.61,-0.94 0.47,-0.38 -0.68,-0.74 -0.59,1.59 0.63,1.34 -1.35,1.33 -0.4,-0 -1.27,-0.76 -1.8,-1.11 -0.15,0.22 -0.92,0.8 -1.03,0.98l0.17 1.65 2.07 -0.39c-0.13,1.14 -0.46,1.67 -0.51,1.81l-0.22 0.56c-0.05,0.11 -0.15,0.36 -0.21,0.46 -1.06,1.94 -1.99,0.5 -0.53,4.62 -1.14,0.88 0.05,0.27 -2.23,0.08l0.78 0.77c1.08,1.17 0.37,0.69 1.18,2.19l1.2 1.69c0.06,-0.1 0.23,0.27 0.36,0.4 2.02,-2.04 -0.12,-0.52 1.14,-1.81 0.64,-0.66 0.97,-0.71 1.99,-1.16 -0.63,1.83 -0.12,0.87 -1.15,1.96 -0.1,0.11 -0.23,0.16 -0.33,0.25l-2.42 1.89c0.01,2.85 -0.71,0.31 0.53,2.58 -0.38,3.5 0.06,-1.14 -1.95,2.63 0.63,1.52 1.1,1.33 2.32,2.06 -0.1,0.11 -0.2,0.16 -0.23,0.38l-0.41 0.77c-0.05,0.11 -0.11,0.27 -0.16,0.39 -0.13,0.32 -0.56,1.56 -0.66,1.83 -0.62,1.71 -0.64,1.44 -0.3,3.43 0.04,0.03 1.24,0.76 1.36,0.83 3.12,1.91 -0.92,0.24 2.12,2.33 -1.4,1.41 -1.85,3.09 -1.91,5.32 0.35,0.89 0.39,1.19 0.98,2.03l1.84 2.08 -0.53 -2.5 3.01 1.25c0.15,0.07 0.87,0.4 1.02,0.49 -0.87,-1.2 -1.38,-2.05 -0.52,-3.32 1.24,-0.15 0.39,0.3 0.74,-0.84 2.9,0.75 3.57,2.94 3.95,3.47 1.23,-1.3 0.87,-1.28 2.2,-1.44 0.85,-0.1 2.96,0.47 3.22,1.43 -1.87,0.77 -0.48,0.82 -3.04,1.04l-0.26 5.51c-0.01,0.05 -0.04,0.2 -0.04,0.26 -0.07,0.48 -0.56,2.22 0.04,3.1 1.24,1.8 2.14,1.14 3.18,-0.18 -0.3,1.03 -0.64,1.63 -1.13,2.53 -0.81,1.49 -0.89,1.5 -2.08,2.01 -1.63,-0.74 -0.71,-0.03 -1.22,-1.8l-0.47 0 -0.12 1.99c1.13,0.44 1.93,-0.17 2.34,1.5 0.26,1.05 -0.2,1.19 -0.75,2.25 3.41,-1.2 1.21,-0.28 1.9,0.42 1.15,-0.63 0.8,0.57 1.02,-0.61 -0.31,-1.61 -1.74,-0.93 -1.14,-2.91 0.76,-2.52 0.04,-0.42 1.05,-1.37l0.77 0.58 1.72 -2.12c1.47,0.96 0.94,1.07 0.24,2.35l1.7 0.75c-0.98,1.04 -0.41,1.38 -3.24,1.08l0.94 2.77 -2.61 -0.68 5.77 7.39c2.99,2.85 2.56,0.56 5.04,1.1 1.78,0.39 1.39,0.63 1.55,1.1l-3.85 0.06c0.89,2.46 0.33,0.4 2.57,1.32l0.9 0.6c1.28,0.97 0.5,0.88 2.13,1.37l3.47 2.03c0.92,0.87 0.94,0.69 1.32,1.93l4.53 0.1c1.78,1.88 -0.17,1.4 2.53,2.04 -1.45,1.18 -1.21,0.29 -0.95,2.59 4.4,0.89 2.55,-2.33 5.57,-0.05 0.02,0.01 0.6,0.61 0.68,0.69 0.55,0.03 0.59,-0.04 1.1,0.12 2,0.64 1.77,0.92 2.14,1.95 -2.26,0.78 -0.17,0.42 -2.65,-0.42 -1.14,1.5 0.84,1.86 2.42,1.78 0.52,-0.03 2.03,-0.35 2.34,-0.43 2.26,-0.57 1.03,0.88 1.87,-0.91 -0.39,-1.12 0.64,-1.42 0.59,-3.74 -1.56,-0.26 -2.42,0.33 -3.78,0.83l-2.33 -1.12c1.4,-3.56 1.87,-2.11 3.85,-1.95 1.19,0.1 4.06,-0.45 6.43,-0.51l-0.71 -1.52c0.15,-0.11 0.35,-0.34 0.4,-0.25 0,0 1.11,-0.31 1.24,-2.12 -4.87,-0.02 -2.98,-0.5 -4.57,-0.78 1.18,-1.34 -0.11,-0.78 1.7,-1.49l-1.4 0.04 0.27 -1.22c-0.76,-0.1 -0.75,-0.56 -2.58,0.08l-0.87 0.53c1.5,-0.21 1.2,-0.78 2.96,0.49 -1.52,0.6 -2.26,0.24 -3.8,0.75 -3.17,1.05 -0.46,1.27 -3.75,1.12l-0.27 -1.24c-1.14,-1.57 -0.6,-1.68 -2.25,-1.07 -0.61,-1.59 0.45,-0.13 -1.71,-1.03l1.2 -1.45c0.93,-1.66 -0.39,-0.06 0.73,-1.02l1.21 -0.81c0.13,-0.08 0.32,-0.16 0.48,-0.26l-0.22 2.08c4.57,-0.21 5.28,-2.98 5.66,-3.3 0.06,-0.05 0.19,-0.16 0.26,-0.2l0.6 -0.18c0.06,-0.01 0.92,0.15 1.07,0.18 -0.4,-0.63 -0.16,-0.24 -0.61,-0.65l-1.03 -0.89c1.51,-0.26 0.82,-0.01 1.98,-0.69 1.4,3.15 2.53,1.69 5.03,1.44 -0.44,-1.53 -0.26,-0.94 -1.4,-1.6l2.74 -0.53c-0.63,-2.26 -0.16,-0.34 -1.18,-1.97 1.38,-0.21 1.13,-0.19 1.99,-0.79 0.62,2 0.43,1.25 1.83,3.01l0.6 0.83c0.01,0.01 1.63,1.43 -0.4,1.05 -1.1,-0.21 -0.16,0.64 -0.79,-1.48 -0.11,0.09 -0.31,0.03 -0.37,0.21 -0.35,1.04 -1.42,-0.35 -2.37,2.1 -0.04,0.11 -0.07,0.49 -0.14,0.65l1.87 -0.37c0.09,0.46 0.17,0.99 0.33,1.35 1.14,2.44 1.54,-0.03 1.5,3.37 2.64,-2 1.18,-0.43 4.23,-1.57l1 -0.43c0.07,-0.03 0.22,-0.12 0.35,-0.15 0.89,2.49 -0.55,-0.61 -0.04,1.46 0.02,0.06 0.05,0.21 0.08,0.28 0.03,0.08 0.1,0.23 0.14,0.32l0.7 1.2 -2.54 0.27c-0.23,1.62 -0.13,2.19 -1.09,3.4l-0.84 0.8c0.11,0.07 0.33,-0.02 0.38,0.12l2.68 0.13c1.26,0.37 -0.82,0.57 1.62,0.2l2.23 -0.91 0.44 1.22c1.34,-1.88 0.66,-1.2 3.19,-2.09 0.79,2.52 0.36,1.42 1.48,2.11 1.07,0.65 0.26,-1.04 0.97,0.46 0.95,1.99 -0.63,0.8 -0.85,0.9l1.17 0.01c2.58,-0.77 2.43,-1.65 4.49,0.64l2.58 0.23 1.49 -0.23 0.2 -0.56c1.75,-1.99 1.4,-0.38 1.29,-2.51 -1.72,-0.71 -2.72,-1.14 -3.41,-2.31 0.07,-0.04 0.2,-0.14 0.22,-0.07l1.87 -0.81c0.88,-0.37 1.82,-0.35 3.42,-0.59 -0.1,1.56 0.34,0.9 -0.32,1.63l0.78 -0.91c0.08,-0.06 0.28,-0.17 0.36,-0.22 0.08,-0.05 0.26,-0.15 0.39,-0.21 0.99,1.33 0.56,0.75 1.02,2.23l0.99 0.15 0.47 1.48 1.53 1.45c0.45,-0.58 0.19,-0.37 0.94,-0.86l1.38 -0.67c-1.38,-2.84 -2.2,-2.47 -2.42,-5.54 6.05,1.18 1.89,0.54 2.37,2.34 2.23,0.34 0.87,0.34 2.65,-0.4 0.48,0.45 0.68,1.58 1.52,2.06l0.07 -1.45 -2.85 -2.1c-0.09,-0.05 -0.27,-0.12 -0.38,-0.21l5.97 -1.5c0.09,-0.13 0.26,-0.45 0.31,-0.35 0.05,0.09 0.24,-0.26 0.31,-0.34 1.72,-1.94 1.02,0.1 1.26,-2.16 2.9,0.14 4.57,0.25 6.78,-0.79 1.18,0.82 0.52,0.5 0.98,1.31 2.18,0.38 3.63,-0.22 4.54,-2.06l0.76 -3.92c0,-0.06 0.15,-0.35 0.02,-1.02l-2.45 -1.54c2.06,-1.11 -0.37,0.8 2.19,-0.66l0.68 -0.43c0.73,0.93 0.62,1.02 2.16,1.09 1.68,-1.05 2.67,-3.58 2.58,-5.71 0.66,-1.06 0.3,-0.8 1.05,-1.55 1.28,0.53 0.57,0.08 1.56,0.9 0.53,-2.05 1.55,-3.19 1.65,-5.17 0.16,-3.01 -0.98,-3.59 -1.41,-5.44 -0.6,-1.71 -0.7,-1.23 0.04,-1.6 0.06,-0.03 0.24,-0.11 0.3,-0.15l1 -0.57c2.64,-0.94 0.94,-2.94 2.39,-5.06 1.19,-1.75 1.21,-0.22 0.75,-1.23 -0.34,-0.13 -0.69,0.71 -2.56,-0.1 -1.94,-0.84 -0.86,-0.5 -2.58,0.28l-0.16 -2.71c-0.09,-0.09 -0.23,-0.21 -0.29,-0.26 -0.06,-0.05 -0.23,-0.21 -0.29,-0.27 -0.08,-0.07 -0.44,-0.42 -0.55,-0.55l-1.07 0.19 -0.31 -1.36c-0.34,-0.95 -0.49,-1.58 -0.84,-2.28 -1.19,-2.42 -0.57,-0.88 -0.85,-0.9 1.97,-0.58 1.06,0.8 3.74,-0.78 1.05,1.44 0.83,1.49 3,1.49l-0.28 2.11 -0.01 0.34c1.57,0.74 1.43,1.15 3.16,0.74 0.42,-1.29 0.8,-1.66 -0.15,-2.95l-1.5 -2.93c1,-0.95 -1.36,-1.56 1.62,-0.47l0.35 -0.05c-3.52,-1.52 -1.54,-0.09 -2.07,0.09l-1.48 0.71c-0.12,-0.15 -0.36,0.21 -0.57,0.25 1.3,-3.78 1.26,-1.68 2.34,-4.17l-2.54 -0.77c2.4,-1.53 1.81,-0.48 2.13,-1.68 0.71,-2.67 -0.17,-1.33 -1.72,-2.16l3.53 -9.38c-0.14,-0.73 -2.36,-2.12 -2.38,-2.18 -0.06,-0.19 -0.26,-0.16 -0.37,-0.26 -1.94,-0.26 -1.02,-0.04 -1.99,-0.79 0.1,-0.06 0.25,-0.14 0.31,-0.16l1.89 -0.22c0.51,-1.77 0.54,-1.54 -0.63,-2.52l1.5 -2.44c1.36,0.33 1.09,0.23 1.86,1.17 0.3,-1.37 0.06,-2.23 -0.31,-3.15l-0.57 0.25 -1.52 0.91c-0.9,-1.88 -1.74,-1.01 -2.05,-6.36 1.39,0.34 1.36,0.39 2.34,1.32 -0.37,-1.35 -0.3,-1.04 -1.34,-1.67 -3.06,-1.88 -1.09,1.78 -2.56,-2.25 2.95,-0.96 1.15,-0.14 3.45,0.24l0.45 -2.43 -1.48 -0.75c-5.17,-3.13 -1.02,0.15 -5.38,-3.57l-1.07 -0.8c-1.18,-0.64 -3.66,-0.26 -5.12,-1.26 -0.4,-2.45 1.37,-1.35 0.64,-4.81 -0.43,-2.02 -1.78,-2.33 -3.33,-3.31l-0.98 -0.51c-0.23,0.77 -0.32,1.23 -0.49,1.71l-0.69 1.4c-1,-1.96 -0.35,-1.79 -2.35,-2.94 -1.69,0.88 0.22,0.67 -1.07,0.99 -0.21,0.05 -1.18,0.36 -1.45,-0.35 -0.07,-0.19 -0.3,-0.15 -0.43,-0.26 -0.16,-3.01 0.25,1.11 -2.03,-4.29 -0.66,-1.57 -1.25,-3.35 -1.91,-5.35 -1.08,0.13 0.01,-0.47 -1.13,0.57l2.06 5.09c-2.78,-0.16 -1.27,0.08 -1.92,-0.51l-0.36 -0.72c-0.06,-0.11 -0.06,-0.28 -0.11,-0.4 -0.83,-1.77 -0.02,-0.48 -1.79,-2.1 0.18,-2.98 1.61,1.14 0.42,-2.32 -0.5,-1.46 -1.1,-1.57 -2.13,-1.79l-1.95 2.14c-0.08,0.09 -0.26,0.47 -0.32,0.37 -0.06,-0.1 -0.21,0.26 -0.32,0.39l-0.81 -1.11c-0.1,-0.09 -0.21,-0.19 -0.32,-0.26l-4.4 -0.86c-0.33,-3.28 1.29,-2.26 -1.11,-4.94 2.74,-0.14 0.54,0.15 1.46,-0.8 -0.06,-0.08 -0.64,-0.69 -0.65,-0.71 -0.62,-1.03 -0.1,-0.3 -0.23,-0.8 -0.03,-0.14 0.64,-1.08 -1.42,-1.14l-0.9 -0.79c-0.26,-0.22 -0.33,-0.37 -0.9,-0.75 -0.93,-0.63 -1.27,-0.58 -2.06,-1.06l-2.93 0.05c-1,1.01 -0.09,0.58 -1.91,0.94 -0.94,-0.66 -0.58,-0.43 -1.21,-1.21 -0.34,-0.43 -0.57,-0.85 -0.86,-1.16l-0.93 -0.36c-2.3,-0.17 -3.53,-0.42 -5.12,0.57 0.57,2.46 1.41,-2.35 1.23,1.75 -3.49,-0.09 -1.5,-2.53 -7.49,-1.8 0.83,-4.52 0.83,-1.15 3.17,-3.82 -0.17,-0.04 -0.39,-0.26 -0.44,-0.31 -0.04,-0.04 -0.21,-0.17 -0.24,-0.36 -0.04,-0.22 -0.15,-0.31 -0.25,-0.46l0.12 -0.01c-1.53,0.13 -0.14,-0.35 -1.01,0.69 -0.08,0.09 -0.09,1.46 -0.37,0.69 -0.03,-0.09 -0.1,0.27 -0.17,0.4 -1.6,-0.86 -2.47,-1.53 -5.3,-0.86 -0.3,1.03 0.2,5.49 0.2,7.68l-2.3 -0.11 1.66 -2.58c-1.96,0.97 -5.3,2.3 -6.58,1 -1.09,-1.12 1.75,-3.25 -4.32,-3.15 0.62,2.77 1,1.48 -0.56,2.05 -1.45,-1.45 -1.04,-0.92 -0.99,-3.55 -1.61,0.55 -0.97,0.19 -1.89,1 0.3,1.79 0.87,0.9 1.4,2.68 -0.95,1.42 -2.17,3.32 -3.95,3.77l-3.07 0.48c-2.2,0.19 -1.56,-0.05 -3.49,0.86 2.44,0.54 0.31,0.18 1.44,1.05z"/>
   <path class="fil0 str0" d="M315.82 273.02c0.35,5.04 0.65,11.13 -1.56,15.31 -1.89,3.59 -8.86,5.46 -11.42,1.43 -0.55,-0.87 -1.01,-2.58 -1.21,-3.5 -0.38,-1.68 -0.37,-1.22 0.09,-2.75 0.7,-2.33 1.5,-3.83 3.13,-5.13 2.77,-2.21 8.25,-2.85 10.97,-5.37zm-17.25 5.65c-0.07,2.2 0.11,-0.4 -0.38,1.21 -0.01,0.05 -0.06,0.18 -0.07,0.23l-0.32 1.49c-0.8,-0.27 -0.76,0.01 -1.63,-0.61 -1.44,1.11 -1.52,3.27 -1.49,5.64l0.97 1.52c0.04,-0.04 0.15,-0.3 0.18,-0.21 0.46,1.37 0.38,-0.36 0.46,-0.4 1.34,-0.71 -0.66,-0.47 0.7,-0.15l0.78 1.64c-0.69,0.36 0.04,0.46 -1.6,0.04l0.06 1.29c1.3,2.68 6.62,3.51 10.82,3.2 5.85,-0.43 6.51,-2.68 8.91,-5.96 1.8,4.83 4.7,7.04 10.59,5.65 0.69,-0.16 1.73,-0.52 2.3,-0.88 3.61,-2.3 -1.95,-0.09 -4.92,-0.77 -1.16,-2.25 -0.94,-4.75 -0.95,-7.75 -0.02,-5.9 0.53,-4.27 -1.37,-8.26 -3.24,-1.41 0.04,-1.28 -2.53,-2.18l-3.67 -2.58c-2.05,4.42 -12.03,4.96 -16.85,7.84z"/>
   <path class="fil1 str1" d="M290.67 212.7c1.88,-0.05 0.88,-0.58 1.57,0.17 1.3,-2.25 1.32,-0.12 1.47,-0 -0.96,1.74 0.77,0.73 -1.62,1.11 0.95,2.3 2.78,0.73 4.04,-0.74 2.32,2.39 1.5,2 3.65,2.68l3.2 -4.21c-1.35,-0.94 -0.32,-0.27 -1.62,-0.48 -1.31,1.16 -0.42,1.27 -1.3,2.9 -0.49,-0.44 -1,0.65 -1.29,-1.87 -0.08,-0.72 0.55,-1.66 0.52,-1.95 -0.12,-1.44 -1.01,-0.16 -1.49,-0.94 -0.7,-1.15 -0.01,-1.24 0.15,-1.57 2.99,-0.49 -0.13,0.6 3.79,1.42 -1.13,-0.87 1,-0.51 -1.44,-1.05 1.93,-0.92 1.29,-0.67 3.49,-0.86l3.07 -0.48c1.78,-0.45 3,-2.34 3.95,-3.77 -0.53,-1.78 -1.1,-0.89 -1.4,-2.68 0.92,-0.81 0.28,-0.44 1.89,-1 -0.06,2.63 -0.46,2.09 0.99,3.55 1.56,-0.57 1.18,0.72 0.56,-2.05 6.07,-0.1 3.23,2.03 4.32,3.15 1.28,1.31 4.61,-0.02 6.58,-1l-1.66 2.58 2.3 0.11c0.01,-2.19 -0.5,-6.65 -0.2,-7.68 2.83,-0.67 3.71,-0.01 5.3,0.86 0.07,-0.12 0.14,-0.49 0.17,-0.4 0.28,0.76 0.3,-0.6 0.37,-0.69 0.87,-1.05 -0.52,-0.56 1.01,-0.69 -2,-3.9 -3.61,-2.35 -5.23,-2.85 -0.78,-0.24 1.22,-0.51 -1.78,-0.43 -4.38,0.12 -5.52,2.62 -7.03,5.37 -2.03,0.1 -7.34,-2.5 -9.94,1.59 -1.35,2.13 -0.01,1.25 -2.31,2.44 -1.21,-0.4 0.05,0.02 -0.83,-0.79 -0.72,-0.66 0.74,-0.13 -1.08,-0.9 -2.02,1.47 -0.03,0.27 -1.3,1.6 -1.8,1.87 -0.31,0.36 -2.36,1.38 -1.34,0.67 -1.48,1.04 -2.25,2.3 -0.08,0.13 -0.33,0.57 -0.4,0.69 -1.68,2.82 -3.51,-1.34 -5.88,5.16z"/>
   <path class="fil1 str1" d="M150.69 286.86c-0.54,0.29 -0.8,0.49 -1.28,0.88 0.74,-0.91 1.26,-0.01 0.27,-2.54 2.28,-1.09 -0.57,-0.34 3.07,-1.77l-2.06 3.43zm-3 -3.05c0.59,-0.89 0.77,-1.25 1.27,-1.81 0.53,-0.6 0.28,-0.35 1.06,-0.71 -1.39,2.02 1.47,1.51 -2.32,2.51zm4 -42.75c0.62,0.61 0.21,-0.24 0.4,0.86 0.24,1.33 0.37,2.35 -0.17,3.81 0.9,0.4 0.38,-1.12 -1.68,0.51 -2.3,1.81 0.12,0.25 -1.88,0.54 0.61,2.69 -0.09,0.42 2.1,1.84 0.02,0.02 1.04,0.96 1.11,1.03l0.94 0.93c-0.08,2.74 0.12,2.57 -0.85,4.09l-0.57 0.57c1.01,0.79 0.39,-1.04 0.93,1.04 -2.18,0.3 -0.78,0.31 -0.98,-0.79 -0.17,-0.15 -0.43,-0.18 -0.49,-0.48 -0.08,-0.37 -0.51,-0.34 -0.81,-0.33l0.2 0.61c-0.68,0.94 -0.05,0.69 -1.48,1.67 -1.03,0.71 0.25,0.07 -1.65,0.63l-0.24 -0.87 -0.49 0 -0.02 5.77c1.04,-0.3 2.26,-1 2.43,0.49 0.17,1.47 0.04,0.4 -1.17,0.81l-0.54 0.24c0.72,1.14 -0.39,0.85 1.26,0.83 0.38,-0.01 1.88,-1.35 2.73,0.87 0.69,1.78 -0.15,1.04 -0.18,1.08 0.09,-0.02 0.83,-0.11 0.84,-0.11 1.07,0.13 0.54,0.12 1.1,0.44 -0.65,1.62 -1.25,1.72 -1.76,2.37l-1.56 -1.89c-1.42,1.06 -1.5,0.63 -3.18,0.19l-0.01 22c1.94,-0.39 -0.04,-0.09 1.72,-0.63 2.04,-0.63 0.07,0.72 2.61,-0.55 1.08,-0.54 1.09,-0.59 2.03,-0.97l0.55 2.98 -0.02 -50.56c-2.13,0.39 -0.67,-0.14 -1.22,1.02z"/>
   <path class="fil1 str1" d="M315.71 272.45c-2.72,2.52 -8.2,3.16 -10.97,5.37 -1.63,1.3 -2.44,2.8 -3.13,5.13 -0.46,1.53 -0.46,1.07 -0.09,2.75 0.2,0.91 0.66,2.62 1.21,3.5 2.56,4.02 9.53,2.15 11.42,-1.43 2.21,-4.18 1.91,-10.27 1.56,-15.31z"/>
   <path class="fil1 str1" d="M100.99 267.12c0.02,-0.08 0.22,-0.06 0.24,-0.06 0.99,-0.19 -0.46,1.03 -0.24,0.06zm19.93 25.46l0.35 -1.08c-8.01,1.22 -11.3,-0.44 -13.32,-6.69 -2.23,-6.9 -0.4,-12.37 -0.84,-18.92l0.28 -1.57c-2.61,0.16 -0.93,0.66 -1.83,-0.68 -0.49,-0.81 -0.22,-1.19 -1.95,-1.08 -4.83,4.4 -6.59,14.44 -2.14,21.41 2.82,4.42 10.64,11.05 19.45,8.62z"/>
   <path class="fil1 str1" d="M309.2 324.19l-2.2 0 -1.2 1.45c2.17,0.89 1.1,-0.56 1.71,1.03 1.65,-0.61 1.11,-0.5 2.25,1.07 1.32,-0.5 3.26,-0.92 4.86,-1.12l0.87 -0.53c1.83,-0.64 1.83,-0.18 2.58,-0.08l2.33 0.31c-0.54,0.59 -0.23,0.42 -1.21,0.87 -1.81,0.71 -0.53,0.15 -1.7,1.49 1.58,0.28 -0.3,0.76 4.57,0.78 -0.13,1.81 -1.23,2.12 -1.24,2.12 -0.05,-0.09 -0.25,0.14 -0.4,0.25l0.71 1.52 2.63 -0.19c2.18,-0.29 3.88,-1.03 5.3,-0.32l3.49 0.94c1.42,-0.27 1.93,-0.67 3.1,-1.13l0.02 -0.62 -0.44 -1.22 -2.23 0.91c-2.44,0.37 -0.36,0.16 -1.62,-0.2l-2.68 -0.13c-0.06,-0.14 -0.27,-0.04 -0.38,-0.12l0.84 -0.8c0.96,-1.21 0.86,-1.78 1.09,-3.4l2.54 -0.27 -0.7 -1.2c-0.04,-0.09 -0.11,-0.24 -0.14,-0.32 -0.03,-0.07 -0.06,-0.22 -0.08,-0.28 -0.51,-2.07 0.93,1.02 0.04,-1.46 -0.12,0.03 -0.28,0.12 -0.35,0.15l-1 0.43c-3.05,1.14 -1.59,-0.42 -4.23,1.57 0.05,-3.39 -0.36,-0.93 -1.5,-3.37 -0.16,-0.35 -0.24,-0.88 -0.33,-1.35l-1.87 0.37c0.07,-0.16 0.1,-0.54 0.14,-0.65 0.95,-2.45 2.01,-1.06 2.37,-2.1 0.06,-0.18 0.26,-0.12 0.37,-0.21 0.63,2.12 -0.31,1.27 0.79,1.48 2.03,0.39 0.4,-1.03 0.4,-1.05l-0.6 -0.83c-1.4,-1.76 -1.21,-1 -1.83,-3.01 -0.86,0.6 -0.61,0.59 -1.99,0.79 1.01,1.63 0.54,-0.29 1.18,1.97l-2.74 0.53c1.13,0.66 0.96,0.07 1.4,1.6 -2.51,0.25 -3.63,1.71 -5.03,-1.44 -1.16,0.67 -0.47,0.43 -1.98,0.69l1.03 0.89c0.46,0.42 0.21,0.03 0.61,0.65 -0.16,-0.03 -1.02,-0.18 -1.07,-0.18l-0.6 0.18c-0.07,0.04 -0.19,0.14 -0.26,0.2 -0.38,0.32 -1.09,3.08 -5.66,3.3z"/>
   <path class="fil1 str1" d="M46.02 279.09c0.59,4.47 9.78,11.66 16.63,13.39 9.79,2.48 14.35,-0.87 19.77,-1.79 4.23,-0.72 3.21,0.97 6.15,1.44l0.05 -16.84c-3.64,2.07 -1.15,18.34 -21.47,16.83 -11.45,-0.85 -15.74,-9.89 -16.31,-21.57l-1.44 0.49c0.95,1.93 0.13,3.32 0.14,5.43 -3.06,0.07 -2,0.5 -4.54,-0.48 0.73,1.25 1.41,1.29 1.78,1.57 -0.96,1.08 -0.38,-0.08 -0.77,1.54z"/>
   <path class="fil1 str1" d="M217 270.85c0.91,-1.2 2.14,-1.1 4.36,-1.27 -0.38,0.3 -0.34,0.39 -1.04,0.76 -2.09,1.11 -2.13,0.65 -3.32,0.51zm5.35 -6.53c-0.66,1.17 0.56,0.45 -0.96,1.21l-0.05 -3.77c-4.28,2.75 0.21,0.32 -6.87,1.23 0,2.81 -0.78,14.22 0.94,15.55 0.07,0.06 0.62,0.23 0.63,0.06 -1.94,0.48 -1.57,-1.8 -1.57,6.26l4.17 -2.6c0.45,3.13 -1.35,2.6 0,2.61 0.79,1.67 -1,0.65 2.76,0.15 1.66,-10.95 -2.81,-15.89 4.89,-24.22l-0.36 -0.79c-1.77,1.12 -2.26,2.32 -3.57,4.32z"/>
   <path class="fil1 str1" d="M240.58 290.8l-5.93 0.25c0.12,0.04 0.3,0.01 0.37,0.18 0.36,0.78 16.09,0.27 18.51,0.17 -2.49,-0.74 -3.66,0.3 -5.75,-0.91 -0.24,-3.5 -0.59,-9.67 0.24,-12.86 -1.65,-1.68 -3.36,-5.25 -3.19,-7.52 -3.55,-0.49 0.02,0.45 -2.21,-0.03 -0.95,-0.2 -0.58,-0.11 -1.03,-0.83 -0.16,5.22 -0.7,11.35 -0.37,16.65 0.11,1.74 0.41,3.57 -0.63,4.9z"/>
   <path class="fil1 str1" d="M190.58 279.63c-2.08,6.6 -4.07,12.41 -12.71,12.08 0.44,0.31 0.59,0.44 1.5,0.76 0.49,0.18 1.25,0.27 1.59,0.33 6.05,-1.26 7.47,-5.41 9.92,-8.65l0.09 7.78c2.33,0.02 4.53,0 6.73,0.01 4.88,0.03 5.37,0.67 6.27,-0.84 -1.56,-0.69 -4.03,-0.33 -6.13,-0.54l-0.06 -15.09c-1.28,1.82 -0.08,1.95 -2.26,1.65 -3.22,-0.44 -1.3,0.38 -4.94,2.49z"/>
   <path class="fil1 str1" d="M190.78 258.3l-0.06 8.69c1.36,-0.22 1.84,-0.56 2.8,-0.64 2.81,-0.22 2.83,0.76 2.84,0.76 -1.11,2.47 -0.04,0.77 -1.58,1.64 -0.15,0.44 0.29,1.12 -1.2,0.92 -2.15,-0.28 -1.8,0.44 -1.2,-1.62l-1.65 0.22 -0.14 11.36c3.64,-2.11 1.72,-2.94 4.94,-2.49 2.18,0.3 0.98,0.16 2.26,-1.65l-0.03 -16.03c-0.77,-0.28 -0.8,-0.17 -1.62,-0.63 -1.01,-0.56 -0.31,-0.15 -0.93,-0.8 -1.17,-0.48 -2.61,-0.79 -4.64,-0.93l0.22 1.21z"/>
   <path class="fil1 str1" d="M128.32 272.33c-0.1,4.21 0.1,8.1 -1.09,12.06 -1.29,4.3 -2.23,5.39 -5.97,7.1l-0.35 1.08c7.25,-1.23 14.53,-7.96 15.17,-15.32l-0.07 -4.05c-0.1,0.1 -0.23,0.24 -0.29,0.31l-1.71 1.34c-1.74,-1.91 1.02,0.02 -2.87,-0.27 0.2,-2.33 -0.23,0.06 -0.33,-2.89l-0.3 -1.15c-0.13,0.13 -0.27,0.3 -0.39,0.4 -0.11,0.1 -0.26,0.26 -0.38,0.37l-1.43 1.02z"/>
   <path class="fil1 str1" d="M266.02 298.47l-0.22 0.42c1.98,-0.93 -0.06,-0.49 2.03,-0.82 -0.09,1.52 0.04,0.39 -0.35,2.05l2.04 -0.61c0.24,0.67 -0.08,0.79 1.04,1.29 1.13,0.51 0.17,-0.51 1.89,0.76l-2.57 1.57c0.41,1.47 0.78,1.15 0.86,2.11 0.12,1.58 -1.39,2.69 1.64,2.5 -0.28,-1.21 -0.45,-0.9 0.81,-0.62l1.38 2.37c0.51,1.77 -0.4,1.06 1.22,1.8 1.19,-0.52 1.27,-0.52 2.08,-2.01 0.49,-0.89 0.83,-1.5 1.13,-2.53 -1.05,1.32 -1.94,1.99 -3.18,0.18 -0.6,-0.88 -0.11,-2.62 -0.04,-3.1 0.01,-0.06 0.04,-0.2 0.04,-0.26l0.26 -5.51c2.56,-0.22 1.17,-0.27 3.04,-1.04 -0.26,-0.96 -2.37,-1.54 -3.22,-1.43 -1.32,0.16 -0.97,0.14 -2.2,1.44 -0.38,-0.52 -1.05,-2.72 -3.95,-3.47 -0.36,1.14 0.5,0.69 -0.74,0.84 -0.87,1.27 -0.35,2.13 0.52,3.32 -0.15,-0.09 -0.86,-0.42 -1.02,-0.49l-3.01 -1.25 0.53 2.5z"/>
   <path class="fil1 str1" d="M395.72 249.9c0.37,0.92 0.6,1.78 0.31,3.15 -0.77,-0.94 -0.49,-0.84 -1.86,-1.17l-1.5 2.44c2.75,-1.7 2.35,2.23 1.7,3.04 -0.73,0.92 0.93,1.21 -1.27,0.65 0.11,0.1 0.31,0.06 0.37,0.26 0.02,0.07 2.24,1.45 2.38,2.18l-3.53 9.38c1.55,0.82 2.43,-0.51 1.72,2.16 -0.32,1.2 0.27,0.15 -2.13,1.68l2.54 0.77c-1.08,2.49 -1.04,0.39 -2.34,4.17 0.2,-0.04 0.44,-0.4 0.57,-0.25l1.48 -0.71c0.52,-0.18 -1.46,-1.61 2.07,-0.09l-0.51 -1.56c3.4,-3.1 0.44,-1.23 1.3,-2.69 0.02,-0.04 0.13,-0.15 0.16,-0.2 0,-0 2.59,-1.72 1.59,-5.83 -0.75,-3.12 -0.83,-2.28 -2.24,-1.65l0.97 -8.63c-0.7,-2.55 -0.79,1.04 -0.73,-2.36 0.03,-1.63 3.05,-6.84 -1.26,-6.02 0.46,0.45 0.28,-0.92 0.21,1.28z"/>
   <path class="fil1 str1" d="M44.17 262.94c-1.58,1.45 -0.96,1.15 -2.7,1.75l0.57 5.2c0.36,-0.48 -0.29,-1.48 2.61,-0.12 -0.28,1.9 -0.21,1.5 -1.68,2.57l0.43 1.47c0.07,1.35 0.12,1.5 0.69,2.79 0.65,1.48 0.78,1.64 1.93,2.47 0.39,-1.61 -0.19,-0.45 0.77,-1.54 -0.37,-0.27 -1.05,-0.31 -1.78,-1.57 2.53,0.98 1.48,0.55 4.54,0.48 -0.01,-2.11 0.8,-3.49 -0.14,-5.43l1.44 -0.49 -0.25 -4.01 -4.39 2.91c-0.79,-1.21 -0.84,-0.9 -1.62,-2.09 1,-1.14 1.95,-1.35 3.19,-2.06 0.69,-0.4 0.48,-0.28 0.79,-0.6l-0.68 -2.14c-2.32,0.21 -1.68,0.55 -3.71,0.39z"/>
   <path class="fil1 str1" d="M145.66 234.88l-0.13 55.69 0.48 -0.79 0.01 -22 0.04 -5.3 0.02 -5.77 0.17 -3.16c0.49,-0.3 0.12,-0.03 0.55,-0.21 0.53,-0.22 0.34,-0.09 0.61,-0.33l-0.13 -0.85c-1.65,-0.71 -1.52,-2.34 -1.1,-4.34l-0.12 -2.46c-0.12,-2.23 0.1,-1.91 0.53,-3.51l1.56 -0.76c2.04,1.21 1.82,0.96 3.37,0.52l0.15 -0.55c0.55,-1.15 -0.92,-0.63 1.22,-1.02l-0.06 -6.04 -9.7 -0.48c0.14,0.12 0.31,0.26 0.44,0.34l2.08 1.03z"/>
   <path class="fil1 str1" d="M167.1 286.35c-0.02,2.63 2.48,4.63 4.77,5.54 2.95,1.18 5.89,1.22 9.08,0.92 -0.34,-0.06 -1.1,-0.15 -1.59,-0.33 -0.91,-0.32 -1.05,-0.45 -1.5,-0.76 -3.43,-1.33 -3.78,-2.7 -4.69,-6.34 -1.27,-0.45 -0.81,-0.22 -2.08,-0.52l0.62 -1.6c0.67,-1.97 0.41,-2.22 0.44,-4.54 -1.46,0.83 -3.13,1.62 -4.86,1.98l-0.92 -1.88 1.22 4.25c1.05,0.57 0.57,0.29 1.16,0.75 -0.53,1.03 -1.48,1.07 -1.64,2.54z"/>
   <path class="fil1 str1" d="M170.4 272.86c0.73,-0.61 0.55,-0.64 1.34,0 -1.61,0.77 -0.84,0.19 -1.34,0zm-3.3 13.49c0.17,-1.47 1.11,-1.5 1.64,-2.54 -0.59,-0.45 -0.11,-0.18 -1.16,-0.75l-1.22 -4.25 0.35 -2.93 5.62 1.55 -0.19 1.27c-0.03,2.32 0.23,2.57 -0.44,4.54l-0.62 1.6c1.28,0.31 0.81,0.07 2.08,0.52l-0.05 -13.85 -0.56 0.12 -2.15 -0.16 -0.56 -1.18c-1.13,-1.03 -0.99,-0.9 -2.68,-0.25 0.08,-0.18 0.22,-0.36 0.29,-0.51 0.07,-0.13 0.19,-0.32 0.26,-0.48 0.72,-1.61 0.46,-1.09 0.15,-1.86l-1.84 0.94c-0.09,3 -0.11,6.31 -0.14,9.39 -0.02,2.75 -0.36,7.01 1.2,8.8z"/>
   <path class="fil1 str1" d="M86.02 248.9c0.14,0.11 0.34,0.09 0.42,0.3l1.1 0.49 -0.02 -14.02c-3.08,0.26 -2.94,2.45 -7.21,1.1 -2.15,-0.68 -4.66,-2.26 -7.22,-1.84l-0.63 0.6c4.2,0.59 6.63,2.23 8.8,4.45 3.28,3.37 2.84,4.62 4.75,8.93z"/>
   <path class="fil1 str1" d="M50.3 242.08c0.74,2.48 1.48,1.33 0.69,2.26 -1.05,2.04 -1.57,3.03 -3.76,2.11 -1.46,1.25 -3.77,4.99 -3.83,7.8l-0.11 1.38c1.74,-0.55 1.46,-0.29 3.28,0.69l-0.04 0.19 -0.05 -3.33 4.91 -2.57 3.79 -9.05 -2.13 0.71c-0.33,-0.83 -0.96,1.25 -0.14,-1.74 -2.05,0.72 -1.05,0.41 -2.61,1.55z"/>
   <path class="fil1 str1" d="M240.58 290.8c1.04,-1.33 0.73,-3.16 0.63,-4.9 -0.32,-5.3 0.21,-11.43 0.37,-16.65 0.46,0.72 0.09,0.63 1.03,0.83 2.23,0.48 -1.34,-0.46 2.21,0.03 0.57,-3.01 0.06,0.07 0.98,-1.34 0.34,-0.38 0.7,-1.01 0.98,-1.13 -2.33,-0.9 -0.26,-0.1 -1.19,-1.1 -0.08,-0.15 -0.26,-0.39 -0.28,-0.6 -0.02,-0.17 -0.06,-0.28 -0.15,-0.39 0.65,-0.6 1.13,-1.15 1.54,-1.66l0.08 -1.29c-2.15,-0.12 -1.71,0.68 -3.76,-0.13 -1.65,-0.65 -1.09,-2.19 -2.54,-0.3l0.09 28.62z"/>
   <path class="fil1 str1" d="M146.6 241.85c-0.43,1.59 -0.65,1.28 -0.53,3.51 1.71,-0.26 0.27,0.04 2.61,-1.19l-1.32 2.34c-0.67,1.08 -0.25,0.55 -1.17,1.3 -0.43,2 -0.55,3.63 1.1,4.34 -0.37,-1.29 -0.39,-0.19 1.39,-0.65 0.01,2.01 -0.17,1.25 0.86,3.11l0.4 0.65 -0.2 -0.61c0.29,-0 0.73,-0.04 0.81,0.33 0.06,0.29 0.32,0.32 0.49,0.48l0.06 -0.25 0.57 -0.57c0.97,-1.51 0.77,-1.34 0.85,-4.09l-0.94 -0.93c-0.08,-0.08 -1.09,-1.02 -1.11,-1.03 -2.2,-1.42 -1.49,0.85 -2.1,-1.84 2,-0.29 -0.42,1.27 1.88,-0.54 2.06,-1.62 2.58,-0.1 1.68,-0.51 0.54,-1.46 0.41,-2.48 0.17,-3.81 -0.2,-1.1 0.21,-0.25 -0.4,-0.86l-0.15 0.55 -0.76 1.63c-0.71,0.05 -1.75,0.24 -2.67,-0.06 -1.71,-0.56 -1.17,0.84 -1.5,-1.34z"/>
   <path class="fil1 str1" d="M385.99 234.76l1.07 0.8c4.35,3.72 0.21,0.44 5.38,3.57l1.48 0.75 -0.45 2.43c-2.3,-0.38 -0.5,-1.2 -3.45,-0.24 1.47,4.03 -0.5,0.37 2.56,2.25 1.04,0.64 0.97,0.33 1.34,1.67 -0.98,-0.93 -0.94,-0.97 -2.34,-1.32 0.31,5.35 1.15,4.48 2.05,6.36l1.52 -0.91c-3.18,-4.08 3.38,-3.27 0.23,-9.25 -1.31,-2.5 -1.31,-5.23 -4.03,-5.34 -1.91,-0.08 -0.74,-0.3 -1.85,1.18 -1.46,-2.07 -0.83,-2.74 -3.51,-1.98z"/>
   <path class="fil1 str1" d="M354.06 208.54c-0.92,0.95 1.29,0.66 -1.46,0.8 2.4,2.68 0.78,1.67 1.11,4.94l4.4 0.86c0.11,0.07 0.22,0.17 0.32,0.26l0.81 1.11c0.11,-0.12 0.26,-0.49 0.32,-0.39 0.06,0.1 0.24,-0.28 0.32,-0.37l1.95 -2.14c-0.3,-0.84 -0.44,-1.63 -0.74,-2.25 -0.51,-1.06 -0.27,-0.05 -1.16,-1.61l-0.25 1.18c0.04,-0.09 0.07,0.29 0.11,0.43 -1.86,-0.4 -0.93,-0.4 -2.14,0.69 -0.72,-1.92 -1.89,-0.21 -1.91,-2.06 0.9,-0.79 -1.04,0.4 0.92,-0.51 2.18,-1.01 1.36,-0.17 2.3,-1.61l-2.7 -1.11c-0.14,0.18 -0.42,0.71 -0.91,1.11 -1.32,1.06 0.36,0.53 -1.29,0.68z"/>
   <path class="fil1 str1" d="M370.72 225.43c0.13,0.11 0.35,0.07 0.43,0.26 0.27,0.7 1.25,0.4 1.45,0.35 1.29,-0.32 -0.62,-0.12 1.07,-0.99 2,1.15 1.35,0.97 2.35,2.94l0.69 -1.4c0.18,-0.48 0.26,-0.94 0.49,-1.71l0.98 0.51c0.11,-4.19 5.98,-3.82 4.55,-6.17 -0.83,-1.37 -1.87,-0.78 -2.03,1.14l-1.52 -1.6c-1.39,2.38 -4.8,1.78 -6.49,4.38 -0.96,1.47 -0.24,1.44 -1.97,2.3z"/>
   <path class="fil1 str1" d="M265.38 253.03c0.19,1.47 -0.32,0.71 -0.52,0.94 -1.14,-0.97 -1.53,0.01 -0.04,-1.81 0.59,0.57 0.4,-0.38 0.56,0.87zm-1.95 -3.41l0.9 1.27c-1.93,2.53 -1.68,1.47 -1.04,4.75 -2.95,-1.15 -1.16,0.15 -1.4,-1.8 -0.16,-1.32 0.69,-1.3 -1.05,-1.62 -0.8,1.42 0.1,2.47 0.34,4.63 0.11,-0.18 0.88,-0.76 1.03,-0.98 0.54,0.35 1.4,1.11 1.8,1.11 1.97,0.01 0.76,0.26 1.35,-1.33l0.28 -1.28c1.46,-0.07 2.25,0.79 2.78,1.37l-2.38 0.64c0.7,1.83 -0.54,1.1 2.36,1.17 1.78,-2.16 0.34,-0.5 1.95,-1.39l-0.03 -1.52 -4.54 -2.13c0.11,-0.08 0.29,-0.31 0.34,-0.21 0.11,0.21 3.34,-2.79 2.89,-3.39 -0.08,-0.05 -0.23,-0.14 -0.26,-0.05l-1.44 0.01c-7.06,-0.04 1.48,1 -3.89,0.75z"/>
   <path class="fil1 str1" d="M359.05 332.8l2.63 1.31c2.1,0.49 2.61,-1.16 4.32,-1.9 1.51,-0.65 0.82,0.6 2.28,-1.46 -0.85,-2.06 -0.75,-1.44 -2.7,-2.47l-0.07 1.45c-0.84,-0.48 -1.04,-1.61 -1.52,-2.06 -1.79,0.74 -0.42,0.75 -2.65,0.4 -0.49,-1.79 3.68,-1.16 -2.37,-2.34 0.22,3.07 1.04,2.7 2.42,5.54l-1.38 0.67c-0.75,0.49 -0.49,0.28 -0.94,0.86z"/>
   <path class="fil0 str0" d="M303.93 264.03c-2.28,-2.2 -0.9,2.35 -0.91,-1.05 -1.35,0.4 -1,0.34 -2.09,0.98 -2.67,-1.55 0.48,-1.35 -2.72,-1.25 -1.54,1.2 -0.89,4.01 -0.51,5.63 4.1,1.86 7.21,1.22 6.23,-4.31z"/>
   <path class="fil1 str1" d="M368.32 324.47c2.78,1.66 -0.22,-0.48 -2.5,2.42 1.36,2.9 0.57,0.05 1.98,1.47l0.3 0.88c0.85,-0.4 0.64,-0.49 0.93,-0.73 1.29,-1.06 -0.81,-0.01 1.16,-0.96l1.24 0.63 -0.42 -2.04 1.35 0.34c0.62,-1.69 -0.07,-0.46 0.97,-0.95 -0.66,-1.38 -0.69,-0.79 0,-2.22 1.84,0.69 1.11,-0.24 1.52,1.53l0.37 -3.01 2.75 0.31c-0.47,-0.81 0.19,-0.48 -0.98,-1.31 -2.21,1.03 -3.88,0.93 -6.78,0.79 -0.24,2.27 0.46,0.22 -1.26,2.16 -0.07,0.08 -0.26,0.43 -0.31,0.34 -0.05,-0.1 -0.22,0.22 -0.31,0.35z"/>
   <path class="fil1 str1" d="M214.27 290.35c2.23,0.41 1.07,0.32 2.97,-0.77 1.05,-0.6 -0.24,-0.22 1.35,-0.63 0.13,-0.03 1.31,-0.13 1.61,-0.16 1.45,1.01 -0.39,-1.27 0.16,0.29l0.67 1.98c-0.17,0.03 -0.74,0.14 -0.84,0.14 -1.57,0.01 -0.64,-0.01 -1.06,-0.09l8.38 0.25 0.1 -0.52 -6 -0.12 -0.2 -5.72c-3.76,0.5 -1.97,1.52 -2.76,-0.15 -1.35,-0.01 0.45,0.52 0,-2.61l-4.17 2.6c0,-8.06 -0.37,-5.77 1.57,-6.26 -0.01,0.17 -0.56,0 -0.63,-0.06 -1.72,-1.33 -0.94,-12.75 -0.94,-15.55l0.02 0.16c0.46,3.44 0.55,24.68 -0.21,27.2z"/>
   <path class="fil1 str1" d="M214.7 260.86c1.5,-0.55 3.37,-0.9 4.45,-1.56 0.51,0.82 0.83,-0.62 -0.15,2.27 2.28,-0.65 0.57,-1.1 2.89,-0.71 -1.52,-3.98 1.09,-3.86 -4.81,-3.86 -2.39,-0 -7.51,-0.76 -9.12,0.73 1.93,1.75 3.19,0.58 6.37,1.04l0.36 2.09z"/>
   <path class="fil0 str0" d="M315.32 259.75c0.07,0.9 0.22,1.78 0.43,2.93 0.06,0.29 0.2,1.1 0.27,1.32 0.44,1.26 0.09,0.72 0.78,1.23 1.09,-0.63 0.04,-0.69 2.63,-0.58l2.98 -0.3c-0.41,-1.57 -1.08,-3.03 -2.09,-4.04 -0.86,-0.85 -3.17,-2.13 -4.21,-2.41l-1.26 0.18 0.48 1.67z"/>
   <path class="fil1 str1" d="M316.41 339.82l0.53 -0.7c2.25,-2.85 0.17,-1.51 2.74,-3.06l1.62 -1.12c0.26,-1.24 -0.57,-0.68 0.84,-0.93 0.76,2.16 0.45,0.43 -0.98,1.06 1.06,0.99 -1.46,0.57 1.56,0.91 0.64,-1.22 0.02,-1.49 1.07,-2.82l-2.63 0.19c-2.37,0.06 -5.23,0.61 -6.43,0.51 -1.98,-0.16 -2.45,-1.61 -3.85,1.95l2.33 1.12c1.35,-0.51 2.21,-1.09 3.78,-0.83 0.05,2.32 -0.97,2.62 -0.59,3.74z"/>
   <path class="fil0 str0" d="M317.37 270.82c0.12,-0.04 0.29,-0.3 0.33,-0.17l0.98 0.13c-2.27,1.81 -0.72,0.3 -1.31,0.04zm0.68 -5.32c1.91,0.64 1.07,-0.09 1.94,2.03 -2.2,-0.96 -1.52,-0.31 -1.94,-2.03zm-1.24 -0.27c-0.25,1.8 -0.82,3.63 -1.39,5.61l3.67 2.58 -0.3 -1.42 2.42 -0.23c0.36,-2.03 0.57,-1.94 -0.17,-2.76 -0.06,-0.06 -0.19,-0.2 -0.25,-0.26 -0.06,-0.06 -0.22,-0.21 -0.27,-0.27 -0.05,-0.06 -0.2,-0.17 -0.29,-0.27 0.97,-0.3 0.63,-0.08 1.1,-0.52 -1.16,-3.52 0.61,0.73 -0.68,-1.32l-1.22 -1.71c-2.59,-0.11 -1.54,-0.05 -2.63,0.58z"/>
   <path class="fil1 str1" d="M169.21 257.67c-0.1,0.11 -0.24,0.24 -0.32,0.32 -0.07,0.07 -0.22,0.22 -0.31,0.31 -2.45,2.68 0.04,1.43 -1.7,3.18l-0.2 5.26c0.8,-1.59 2.07,-2.31 3.54,-2.97l0.81 -0.3c0.13,-0.06 0.29,-0.12 0.41,-0.18 0.12,-0.05 0.3,-0.16 0.39,-0.2 0.1,-0.05 0.27,-0.13 0.39,-0.21 -0.51,-0.91 -0.27,-0.08 -0.29,-0.85 -0,-0.01 0.15,-0.96 0.18,-1.25 0.11,-1.19 0.03,-2.4 0.03,-3.6l-2.92 0.48z"/>
   <path class="fil1 str1" d="M44.52 261.77l-0.35 1.18c2.03,0.16 1.39,-0.18 3.71,-0.39l0.68 2.14c-0.32,0.32 -0.1,0.2 -0.79,0.6 -1.24,0.71 -2.19,0.92 -3.19,2.06 0.78,1.19 0.83,0.89 1.62,2.09l4.39 -2.91 0.07 -5.16c-1.2,-0.95 0.55,0.41 -1.23,-0.78l-2.38 0.25c-1.09,0.38 -1.3,0.53 -2.52,0.92z"/>
   <path class="fil1 str1" d="M375.94 259.95c-2.68,-0.99 -7.19,-0.31 -7.82,1.5 -1.07,3.06 -0.3,0.23 -0.01,1.49l0.92 0.01c1.78,-0.6 -0.06,0.76 1.6,-1.16 0.09,-0.11 0.36,-0.54 0.49,-0.66 0.37,1.31 0.29,0.53 1.16,1.25 2.16,-1.55 3.57,-3.18 6.11,-1.3 0.07,0.05 0.19,0.17 0.27,0.22 1.59,0.99 3.57,1.18 5.49,-0.33 -1.36,-0.68 -2.83,0.27 -2.86,0.3l-1.35 -1.41c-0.08,-0.13 -0.14,-0.33 -0.2,-0.44 -0.06,-0.11 -0.1,-0.31 -0.17,-0.46l-2.55 -0.01 -1.1 -3.24c-0.09,0.14 -0.17,0.2 -0.18,0.45l-0.19 0.89c0.01,3.27 0.89,-1.43 0.38,2.89z"/>
   <path class="fil1 str1" d="M259.58 263.51l0.75 -0.5 -0.09 2.11c-2.44,0.41 -0.62,0.35 -1.28,-0.82 -2.36,5.18 -0.27,1.38 -1.24,4.16 -0.29,0.83 -0.39,0.67 -0.56,1.68l2.39 -0.85c0.33,-1.6 0.35,-1.13 0.97,-2.9l-0.78 -0.77c2.29,0.19 1.09,0.8 2.23,-0.08 -1.46,-4.12 -0.53,-2.68 0.53,-4.62 0.06,-0.1 0.16,-0.35 0.21,-0.46l0.22 -0.56c0.05,-0.14 0.38,-0.67 0.51,-1.81l-2.07 0.39c0.75,0.74 -1.52,1.15 0.87,0.62 -1.89,-0.3 -2.23,-2.35 -2.96,-0.26 -0.38,1.07 -0.03,3.62 0.31,4.65z"/>
   <path class="fil1 str1" d="M214.27 290.35c-1.48,0.5 -1.57,0.09 -2.92,0.15 -5.36,0.24 -1.65,-0.21 -3.15,1.65 2.48,0 4.45,0.24 6.81,-0.44 2.35,-0.19 10.51,1.35 12.49,-0.35l-8.38 -0.25c0.42,0.07 -0.51,0.1 1.06,0.09 0.1,-0 0.67,-0.11 0.84,-0.14l-0.67 -1.98c-0.54,-1.56 1.3,0.72 -0.16,-0.29 -0.3,0.03 -1.48,0.13 -1.61,0.16 -1.59,0.4 -0.3,0.03 -1.35,0.63 -1.9,1.09 -0.74,1.18 -2.97,0.77z"/>
   <path class="fil0 str0" d="M298.22 262.71c3.2,-0.1 0.05,-0.29 2.72,1.25 1.08,-0.64 0.74,-0.58 2.09,-0.98 0.01,3.4 -1.36,-1.16 0.91,1.05 -0.17,-5.17 0.32,-4.48 3.41,-6.29 -2.15,-1.45 -5.64,0.36 -7.53,2.04 -1.52,1.35 -0.98,0.99 -1.6,2.93z"/>
   <path class="fil1 str1" d="M146.01 289.78l-0.48 0.79 -5.45 0.73c6.25,0.31 12.72,0.82 18.95,-0.05 -0.31,-0.94 -5,-0.51 -6.11,-0.64l-0.55 -2.98c-0.94,0.37 -0.96,0.43 -2.03,0.97 -2.53,1.27 -0.57,-0.08 -2.61,0.55 -1.76,0.54 0.21,0.24 -1.72,0.63z"/>
   <path class="fil1 str1" d="M133.02 269.77c2.1,0.86 0.86,0.33 0.42,1.12 -0.84,-0.71 -0.31,0.32 -0.42,-1.12zm0 0l-1.68 0.52 -0.53 1.39c0.1,2.95 0.53,0.57 0.33,2.89 3.89,0.29 1.13,-1.65 2.87,0.27l1.71 -1.34c0.06,-0.07 0.19,-0.21 0.29,-0.31l0.07 4.05 0.57 -2.83c-0.02,-1.84 -1.21,-5.97 -2.21,-7.39 -0.72,2.27 0.24,-0.49 -0.86,1.27 -0.57,0.91 -0.36,-0.98 -0.58,1.47z"/>
   <path class="fil1 str1" d="M127.16 264.26l0.39 0.71 1.65 -0.26 0.93 -0.11 -0.56 -1.4c1.42,0.22 1.58,0.25 1.09,1.63 0.12,1.08 0.28,0.28 -0.2,1.39l-0.6 0.93c-0.03,-0.08 -0.14,0.22 -0.19,0.33l0.32 2.67 -1.87 -0.9 0.2 3.09 1.43 -1.02c0.13,-0.11 0.28,-0.27 0.38,-0.37 0.11,-0.1 0.25,-0.28 0.39,-0.4l0.3 1.15 0.53 -1.39 1.68 -0.52c0.21,-2.45 0.01,-0.56 0.58,-1.47 1.1,-1.76 0.14,1 0.86,-1.27l-0.1 0.05c-1.85,-0.9 -1.5,-0.96 -3.29,-1.27l1.35 -1.89 -1.1 -1.33 -1.6 -0.39 -2.54 2.07z"/>
   <path class="fil1 str1" d="M172.21 262.88l-0.08 5.29c-1.85,-0.83 -3.29,-1.32 -5.45,-1.43l0.2 -5.26 -1.03 -0.02 0.19 6.7 1.84 -0.94c0.31,0.77 0.57,0.25 -0.15,1.86 -0.07,0.15 -0.2,0.34 -0.26,0.48 -0.07,0.14 -0.21,0.33 -0.29,0.51 1.69,-0.65 1.55,-0.78 2.68,0.25 -0.12,-1.23 -0.44,-0.98 0.7,-0.98l0.28 -0.6c0.75,0.46 -0.25,1.14 2.08,0.13 0.23,-2.04 0.02,-3.89 0.05,-5.91 0.01,-0.98 0.18,-2.22 0.16,-3.17 -0.1,-3.24 0.08,-1.76 -0.99,-2.59 0.01,1.2 0.08,2.41 -0.03,3.6 -0.03,0.28 -0.18,1.23 -0.18,1.25 0.02,0.77 -0.22,-0.06 0.29,0.85z"/>
   <path class="fil1 str1" d="M146.06 262.48l-0.04 5.3c1.68,0.45 1.76,0.88 3.18,-0.19l1.56 1.89c0.52,-0.64 1.11,-0.74 1.76,-2.37 -0.56,-0.32 -0.03,-0.31 -1.1,-0.44 -0.01,-0 -0.75,0.09 -0.84,0.11 0.03,-0.04 0.87,0.7 0.18,-1.08 -0.86,-2.22 -2.35,-0.87 -2.73,-0.87 -1.64,0.02 -0.53,0.31 -1.26,-0.83l0.54 -0.24c1.2,-0.41 1.34,0.66 1.17,-0.81 -0.18,-1.49 -1.4,-0.79 -2.43,-0.49z"/>
   <path class="fil1 str1" d="M330.94 197.13c0.1,0.14 0.21,0.24 0.25,0.46 0.04,0.18 0.2,0.31 0.24,0.36 0.05,0.05 0.27,0.27 0.44,0.31 -2.34,2.67 -2.34,-0.7 -3.17,3.82 5.99,-0.74 4,1.7 7.49,1.8 0.18,-4.1 -0.67,0.71 -1.23,-1.75 1.58,-0.99 2.82,-0.74 5.12,-0.57 -1.22,-0.96 -4.72,-0.84 -7.45,-1.05l0.35 -4.23c-1.91,1.17 0.52,0.5 -2.04,0.87z"/>
   <path class="fil1 str1" d="M320.64 216.85c1.37,-2.41 -0.33,-2.52 -0.47,-6.35l-0.24 -1.94c0.05,2.83 1.77,2.39 2.98,-0.61 -1.56,-1.11 -1.29,-0.66 -1.99,-0.76 -2.31,-0.35 0.07,0.13 -2.52,-0.74l0.6 8.2c0.82,3.68 -0.42,1.3 1.64,2.2z"/>
   <path class="fil1 str1" d="M46.53 256.51l0.04 -0.19c0.84,1.65 0.9,0.69 -0.79,1.73l-2.08 -2.41c0.78,3.21 0.96,1.53 -0.02,2.4 -0.31,0.27 -1.75,0.32 -2.02,0.34 -0.07,2.52 0.2,1.48 0.47,1.95l1.01 0.05c0.72,-0.14 1.41,-0.34 2.12,-0.56 -0.94,3.35 0.19,0.31 -0.73,1.95 1.23,-0.39 1.44,-0.54 2.52,-0.92 -0.31,-1.74 0.19,-2.03 1.44,-3.2 1.22,-2.64 2.84,-2.04 -0.1,-3.51 -0.53,0.67 -0.51,0.75 -0.8,1.13 -0.13,0.17 -0.1,1.61 -0.68,0.82 -0.07,-0.1 -0.25,0.29 -0.38,0.43z"/>
   <path class="fil1 str1" d="M240.48 262.18c1.46,-1.89 0.89,-0.35 2.54,0.3 2.05,0.81 1.61,0.01 3.76,0.13 -0.48,-1.73 -1.32,-3.04 -2.61,-3.86 -2.05,-1.3 -2.64,-0.23 -5.05,0.12l1.36 3.31z"/>
   <path class="fil1 str1" d="M46.53 256.51c0.13,-0.14 0.31,-0.53 0.38,-0.43 0.58,0.79 0.55,-0.64 0.68,-0.82 0.29,-0.37 0.27,-0.46 0.8,-1.13 2.94,1.47 1.32,0.87 0.1,3.51l0.3 1.36 1.98 0.28 0.62 -8.68 -4.91 2.57 0.05 3.33z"/>
   <path class="fil1 str1" d="M55.67 238.68c1.16,0.68 0.59,-0.3 0.72,1.21 2.49,-1.25 3.01,-2.5 6.53,-3.6 3.04,-0.95 6.36,-1.04 9.55,-0.77l0.63 -0.6 -4.91 -0.73c-3.8,0.13 -8.91,1.54 -11.64,3.56 -0.75,0.56 -0.36,0.28 -0.89,0.92z"/>
   <path class="fil1 str1" d="M278.87 231.12c0.07,0.11 0.2,0.14 0.23,0.33l0.65 2c-0.89,-0.12 -0.54,0.17 -1.23,-0.32 -1.28,-0.9 -0.27,-0.45 -0.26,-0.56 -0.04,3.12 3.99,0.39 4.83,-0.32 2.63,1.2 -2.17,-1.33 0.82,0.66 1.42,0.95 1.86,0.97 3.32,0.3l0.23 -1.78 -6.14 -1.5c-1.64,1.03 0.97,0.42 -2.43,1.19z"/>
   <path class="fil1 str1" d="M302.92 337.1c-0.27,-2.3 -0.51,-1.41 0.95,-2.59 -2.71,-0.64 -0.75,-0.15 -2.53,-2.04l-4.53 -0.1c0.01,0.17 -0.03,0.67 -0.02,0.77 0.07,0.38 0.13,0.74 0.24,0.96l1.4 1.64c1.4,1.38 1.87,1.07 4.48,1.36z"/>
   <path class="fil1 str1" d="M350.86 338.58l1.08 1.7c2.71,-0.75 3.13,-0.32 4.82,-2.65 1.23,-1.7 2.17,-3.33 1.41,-4.71 -3.42,0.53 1.24,0 -3.13,3.03 -1.49,1.03 -2.32,1.43 -4.18,2.64z"/>
   <path class="fil1 str1" d="M369.43 293.9l-0.65 -1.45c-0.07,-0.54 -1.53,-0.14 -2.9,-0.08 1.29,3.43 1.46,4.52 6.66,6.13 0.24,-1.12 0.59,-1.68 1.04,-2.44 -1.49,-1.14 -0.39,-0.71 -2.75,-0.19 -1.06,-2.29 -0.55,-0.57 -1.4,-1.97z"/>
   <path class="fil1 str1" d="M127.34 263.55c-0.18,-0.57 -0.72,-1.8 -0.65,-2.22 0.38,-2.22 -0.28,-0.73 1.45,-1.77 -0.11,-0.1 -0.27,-0.39 -0.32,-0.28l-2.5 -1.25c-1.22,-0.45 -1.76,-0.88 -2.9,-1.31 -2.58,-0.97 -5.46,-0.25 -7.71,-0.56 0.52,1.74 -0.85,0.92 4.1,1.24 6.97,0.45 4.92,2.85 8.54,6.14z"/>
   <path class="fil1 str1" d="M107.88 258.9c-0.51,0.76 -1.21,0.72 -2.09,1.41 -0.79,0.62 -1.67,1.72 -2.18,2.24 1.73,-0.11 1.45,0.27 1.95,1.08l2.59 0.11c0.39,-0.72 0.88,-2.16 1.29,-2.87l1.6 -1.97c0.49,-0.95 0.26,0.01 -0.01,-0.63l-3.15 0.64z"/>
   <path class="fil1 str1" d="M245.8 268.77c-0.92,1.4 -0.41,-1.67 -0.98,1.34 -0.17,2.26 1.54,5.83 3.19,7.52l-0.26 -10.22 -0.49 1.13 -1.46 0.24z"/>
   <path class="fil1 str1" d="M214.7 260.86l-0.22 2.3 -0.02 -0.16c7.08,-0.91 2.59,1.52 6.87,-1.23l0.05 3.77c1.52,-0.76 0.31,-0.04 0.96,-1.21l-0.45 -3.46c-2.32,-0.39 -0.62,0.06 -2.89,0.71 0.98,-2.89 0.66,-1.45 0.15,-2.27 -1.09,0.66 -2.96,1.01 -4.45,1.56z"/>
   <path class="fil1 str1" d="M283.94 286.6c-0.91,1.3 -0.61,0.89 -0.57,2.59l-0.16 3.35 2.58 -2.41c1.82,-1.02 1.82,-0.45 2.82,-2.63 -0.76,-0.4 -1.7,-1.72 -4.67,-0.9z"/>
   <path class="fil1 str1" d="M354.55 307.78l-1.56 1.49c-0.71,-0.1 -1.87,-0.23 -2.37,-0.63l-1.61 -2.13c-1.47,1.82 0.89,-0.45 -0.56,0.37 -0.04,0.02 -0.19,0.08 -0.23,0.1 -0.05,0.03 -0.2,0.08 -0.25,0.12 -0.06,0.04 -0.2,0.1 -0.26,0.15 -1.23,1.02 -0.89,0.42 -1.05,2.21 5.15,1.29 2.44,-0.26 7.79,1.98 0.5,-1.19 -1.04,-0.26 1.08,-1.1l-0.97 -2.57z"/>
   <path class="fil1 str1" d="M387.98 283.24c0.31,-1.35 -0.15,-0.73 1,-1.12l0.38 2.29c0.12,0.13 0.48,0.48 0.55,0.55 0.06,0.06 0.23,0.21 0.29,0.27 0.06,0.05 0.19,0.17 0.29,0.26 0.82,-0.42 0.86,-0.33 1.39,-0.88 1.27,-1.31 0.32,-0.36 0.87,-1.39 -1.61,1.16 0.08,0.56 -2.23,0.82 0.89,-2.17 0.5,-0.37 1.1,-2.58 0.09,0.14 0.28,0.14 0.33,0.37l0.81 1.06 0.28 -2.11c-2.18,-0 -1.95,-0.05 -3,-1.49 -2.68,1.58 -1.77,0.21 -3.74,0.78 0.27,0.02 -0.34,-1.52 0.85,0.9 0.35,0.7 0.51,1.34 0.84,2.28z"/>
   <path class="fil1 str1" d="M166.37 278.82l0.92 1.88c1.73,-0.35 3.4,-1.15 4.86,-1.98l0.19 -1.27 -5.62 -1.55 -0.35 2.93z"/>
   <path class="fil1 str1" d="M259.55 269.3c1.59,2.18 0.81,1.23 0.96,3.17 0.14,1.76 1.08,1.57 2.5,1.93 -1.24,-2.27 -0.52,0.27 -0.53,-2.58l2.42 -1.89c0.1,-0.09 0.23,-0.15 0.33,-0.25 1.02,-1.09 0.52,-0.14 1.15,-1.96 -1.02,0.45 -1.35,0.5 -1.99,1.16 -1.25,1.29 0.88,-0.23 -1.14,1.81 -0.12,-0.13 -0.3,-0.51 -0.36,-0.4l-1.2 -1.69c-0.82,-1.49 -0.11,-1.02 -1.18,-2.19 -0.62,1.77 -0.64,1.3 -0.97,2.9z"/>
   <path class="fil1 str1" d="M306.7 331.14c-0.88,-0.58 2.08,-1.56 -1.24,-0.31l1 -1.96c0.01,-0.04 0.03,-0.19 0.04,-0.21 0.01,-0.02 0.03,-0.09 0.03,-0.16 0,-0.06 0.01,-0.09 0.03,-0.16l1.78 -0.29c-1.15,-1.17 -0.42,-0.25 -0.81,-1.38 -3.49,1.14 -1.6,1.08 -4.09,3.05 1.77,1.84 1.22,2.02 2.04,3.14 1.16,1.59 2.02,1.34 3.98,1.15 -0.97,-1.67 -0.22,-0.6 -2.23,-2.33l-0.52 -0.54z"/>
   <path class="fil1 str1" d="M247.77 290.48c2.09,1.22 3.27,0.18 5.75,0.91 -2.42,0.1 -18.15,0.62 -18.51,-0.17 -0.07,-0.16 -0.25,-0.14 -0.37,-0.18l5.93 -0.25c-1.96,-0.43 -4.8,-0.66 -6.33,0.31 0.98,1.78 5.66,0.99 9.94,1.01 3.61,0.01 9,0.66 9.87,-1.01 -1.51,-0.94 -4.26,-0.59 -6.29,-0.63z"/>
   <path class="fil1 str1" d="M347.91 203.28c0.79,0.49 1.13,0.44 2.06,1.06 0.57,0.39 0.64,0.53 0.9,0.75l0.9 0.79c0.26,-1.46 0.23,-0.8 -0.41,-1.92l-1.31 -2.06 1.93 -2.09c-0.85,-0.7 -0.32,-0.52 -1.66,-1.1 -1.47,-0.63 0.27,-0.53 -1.73,-0.22l-0.66 4.78z"/>
   <path class="fil1 str1" d="M166.68 266.74c2.15,0.11 3.59,0.6 5.45,1.43l0.08 -5.29c-0.12,0.09 -0.29,0.17 -0.39,0.21 -0.09,0.05 -0.27,0.15 -0.39,0.2 -0.12,0.05 -0.28,0.12 -0.41,0.18l-0.81 0.3c-1.46,0.66 -2.74,1.37 -3.54,2.97z"/>
   <path class="fil1 str1" d="M329.1 342.6c1.35,0.36 1.48,0.35 2.49,0.84 1.51,0.73 2.81,1.43 5.72,-0.05 1.38,-0.7 -0.1,0.47 1.05,-0.78 -3.48,-0.55 -5.07,0.02 -6.99,-1.18 -0.9,-0.56 -0.37,-0.59 -1.49,-1.56 -0.28,1.07 -0.56,1.66 -0.78,2.73z"/>
   <path class="fil1 str1" d="M351.72 330.98c1.79,-1.75 1.4,-1.65 3.87,-1.5l-0.55 -1.99c-0.14,0.06 -0.32,0.16 -0.39,0.21 -0.07,0.05 -0.28,0.16 -0.36,0.22l-0.78 0.91c0.67,-0.73 0.23,-0.08 0.32,-1.63 -1.59,0.24 -2.54,0.22 -3.42,0.59l-1.87 0.81c-0.02,-0.07 -0.15,0.04 -0.22,0.07 0.69,1.17 1.68,1.6 3.41,2.31z"/>
   <path class="fil1 str1" d="M301.35 211.23c0.89,-1.58 -0.27,-0.28 1.73,-0.97 -0.69,-0.99 0.92,-0.44 -1.33,-1.04 -3.93,-0.82 -0.8,-1.91 -3.79,-1.42 -0.17,0.33 -0.85,0.42 -0.15,1.57 0.48,0.79 1.37,-0.49 1.49,0.94 0.02,0.29 -0.61,1.23 -0.52,1.95 0.29,2.52 0.8,1.43 1.29,1.87 0.87,-1.63 -0.01,-1.74 1.3,-2.9z"/>
   <path class="fil1 str1" d="M165.86 261.46l1.03 0.02c1.74,-1.76 -0.75,-0.5 1.7,-3.18 0.08,-0.09 0.24,-0.24 0.31,-0.31 0.07,-0.07 0.22,-0.21 0.32,-0.32 -2.36,-0.44 -7.45,-1.55 -9.32,0.06 1.82,1.17 3.81,0.36 5.98,0.73 0.59,1.87 0.09,0.8 0.9,1.88l-0.43 0.45c-0.04,0.05 -0.19,0.26 -0.24,0.32 -0.04,0.06 -0.15,0.25 -0.24,0.36z"/>
   <path class="fil1 str1" d="M268.4 257.55c0.15,2.15 -0.88,0.47 1.12,1.7 1.74,-0.36 0.89,0 2.09,-1.67 0.14,0.06 0.32,0.05 0.39,0.21 0.09,0.2 1.08,0.49 2.21,0.03l0.29 -1.31c-1.52,-0.89 -0.61,0.71 -1.15,-1.12l-2.51 0.42 0.38 -1.18 -0.91 0 0.03 1.52c-1.61,0.88 -0.17,-0.78 -1.95,1.39z"/>
   <path class="fil1 str1" d="M225.92 260l0.36 0.79c4.04,-4.12 8.66,-2.92 9.57,-3.13 2.75,-0.6 0.97,-0.27 1.76,-0.98 -0.34,-0.18 0.34,-0.25 -1.25,-0.52 -3.1,-0.52 -6.91,0.89 -9.3,2.69 -1.4,1.05 -0.48,0.29 -1.15,1.15z"/>
   <path class="fil1 str1" d="M336.29 221.84c0.51,0.47 0.22,-0.06 0.71,0.86 0.29,0.55 0.15,0.46 0.35,0.98 1.04,-1.14 0.86,-0.68 1.6,-2l-1.99 -0.85c-1.09,0.15 -0.01,0.04 -1.07,-0.3 -3.03,-0.98 -4.23,2.82 -2.14,3.38 2.47,0.66 1.76,-0.54 2.53,-2.06z"/>
   <path class="fil1 str1" d="M351.72 330.98c0.11,2.13 0.46,0.52 -1.29,2.51 2.05,1.13 -0.3,0.59 2.84,1.71 0.16,-1.71 -0.03,-0.83 -0.6,-2.71 2.37,-0.38 1.08,0.13 2.29,-0 0.05,-0.01 0.86,-0.19 1.02,-0.26l0.75 -0.39c0.12,-0.06 0.3,-0.18 0.4,-0.24 0.1,-0.06 0.26,-0.17 0.4,-0.25l-0.47 -1.48 -0.99 -0.15c-0.53,0.31 -1.33,0.53 -1.78,0.78l-1.13 0.91c-0.04,-0.08 -0.14,0.18 -0.28,0.33l-1.14 -0.77z"/>
   <path class="fil1 str1" d="M159.04 291.25c-6.23,0.87 -12.7,0.36 -18.95,0.05l5.45 -0.73c-1.86,-0.14 -4.65,-0.42 -6.07,0.54 0.88,1.92 6.05,1.06 8.18,1.06 3.32,0 6.59,-0.03 9.91,-0.09 2.76,-0.1 0.62,0.13 1.48,-0.83z"/>
   <path class="fil1 str1" d="M371.44 243.25c-0.67,1.57 -1,1.32 -0.59,3.28l2.48 -2.43c1.49,-0.47 3.07,1.78 4.76,-0.97 -1.33,-1.36 -0.45,-1.04 -2.62,-0.57 -1.34,0.29 -3.06,0.49 -4.03,0.69z"/>
   <path class="fil1 str1" d="M300.96 327.77c-0.83,0.88 -0.42,0.09 -0.81,1.42 1.57,0.76 1.39,0.69 1.72,1.44 1.65,-2.15 1.07,-3.07 0,-5.01 -1.06,0.24 -1.54,0.43 -2.33,0.67 -3.42,1.02 -1.21,0.09 -2.14,1.34 1.51,0.76 0.99,-0.24 3.57,0.14z"/>
   <path class="fil1 str1" d="M272.29 284.69c1.8,0.44 3.77,0.2 5.58,-0.1 1.71,-0.28 0.8,-0.01 1.73,-0.78 -0.93,-1.79 -0.31,-0.52 -2.64,-1.3l-1.58 -0.6c-1.31,2.99 -0.66,-0.07 -3.09,2.78z"/>
   <path class="fil1 str1" d="M145.66 234.88l-2.08 -1.03c-0.13,-0.08 -0.3,-0.22 -0.44,-0.34l9.7 0.48c-0.65,-1.16 0.28,-0.39 -1.06,-0.73 -1.36,-0.35 -11.06,-0.25 -12.23,0.46 0.65,1.62 4.35,1.14 6.12,1.15z"/>
   <path class="fil1 str1" d="M323.95 213.39c-1.05,2.87 -0.11,1.1 1.56,5.09 0.44,1.04 0.44,0.78 1.46,0.85 1.12,0.08 1,0.01 2.27,0.24 -1.94,-2.08 -1.02,-0.56 -3.35,-1.56 0.05,-0.17 0.27,-0.7 0.3,-0.82 0.5,-1.87 0.57,-2.26 -0.48,-3.11 -1.22,-0.98 -0.74,-0.51 -1.76,-0.69z"/>
   <path class="fil0 str0" d="M321.21 271.77c2.92,1.29 -0.24,-2.07 0.52,0.7 0.59,2.15 0.01,-1.21 0.09,0.91 0,0.01 -0.23,1.59 -0.2,2.22 1.75,1.79 0.04,-0.47 1.48,0.79 -0.29,-12.41 -0.13,-5.14 -1.78,-8.71 -0.47,0.45 -0.13,0.23 -1.1,0.52 0.09,0.09 0.23,0.21 0.29,0.27 0.05,0.06 0.21,0.21 0.27,0.27 0.06,0.06 0.2,0.2 0.25,0.26 0.74,0.82 0.53,0.72 0.17,2.76z"/>
   <path class="fil1 str1" d="M340.5 333.41c-0.63,0.51 -0.34,-0.47 -1.07,1.52 0.11,0.06 0.27,0.05 0.31,0.2 0.05,0.14 0.24,0.16 0.31,0.19 0.06,0.03 0.24,0.14 0.32,0.17 0.08,0.03 0.24,0.11 0.33,0.13 1.83,0.52 2.79,-0.68 3.63,-1.15 1.06,-0.59 0.42,-0.52 1.84,-0.42 -2.06,-2.29 -1.91,-1.4 -4.49,-0.64l-1.17 -0.01z"/>
   <path class="fil1 str1" d="M290.56 257.05l1.25 0.62c2.08,0.52 1.55,1.74 3.19,1.6 2.36,-0.21 1.28,-0.7 1.7,-1.17 -0.58,-1.06 -2.52,-1.87 -3.86,-1.99 -2.03,-0.18 -1.38,0.07 -2.28,0.95z"/>
   <path class="fil1 str1" d="M335.71 332.04l-0.02 0.62c1.04,0.15 1,0.2 2.18,0.29 0.1,0.01 1.49,0.05 1.51,0.05 1.15,0.19 0.48,0.04 1.12,0.42 0.22,-0.1 1.8,1.09 0.85,-0.9 -0.71,-1.5 0.1,0.2 -0.97,-0.46 -1.12,-0.69 -0.7,0.41 -1.48,-2.11 -2.52,0.9 -1.85,0.21 -3.19,2.09z"/>
   <path class="fil1 str1" d="M359.94 209.75c0.64,-2.81 0.35,-1.52 -0.97,-1.88 -0.93,1.43 -0.12,0.59 -2.3,1.61 -1.96,0.91 -0.02,-0.28 -0.92,0.51 0.02,1.85 1.19,0.13 1.91,2.06 1.21,-1.09 0.29,-1.09 2.14,-0.69 -0.04,-0.14 -0.07,-0.52 -0.11,-0.43l0.25 -1.18z"/>
   <path class="fil1 str1" d="M41.65 258.39c0.26,-0.02 1.71,-0.07 2.02,-0.34 0.98,-0.86 0.8,0.81 0.02,-2.4l2.08 2.41c1.69,-1.04 1.63,-0.08 0.79,-1.73 -1.82,-0.98 -1.54,-1.24 -3.28,-0.69l0.11 -1.38c-1.03,1.04 -0.98,2.45 -1.74,4.14z"/>
   <path class="fil1 str1" d="M127.34 263.55l-0.17 0.71 2.54 -2.07 1.6 0.39c-0.84,-1.17 -0.37,-0.67 -1.63,-1.65 -1.24,-0.95 -0.69,-0.16 -1.54,-1.37 -1.73,1.04 -1.07,-0.46 -1.45,1.77 -0.07,0.42 0.47,1.65 0.65,2.22z"/>
   <path class="fil1 str1" d="M190.73 266.99l0 1.29 1.65 -0.22 2.4 0.7c1.54,-0.87 0.47,0.84 1.58,-1.64 -0.01,-0.01 -0.03,-0.99 -2.84,-0.76 -0.96,0.08 -1.45,0.42 -2.8,0.64z"/>
   <path class="fil1 str1" d="M147.29 252.16l0.13 0.85c-0.27,0.24 -0.08,0.11 -0.61,0.33 -0.43,0.18 -0.06,-0.09 -0.55,0.21l-0.17 3.16 0.49 0c0.75,-0.98 0.1,-0.4 1.13,-1.05 0.13,-0.08 0.55,-0.27 0.69,-0.35 0.26,-0.15 1.01,-0.61 1.14,-0.7 -1.03,-1.86 -0.85,-1.1 -0.86,-3.11 -1.78,0.47 -1.77,-0.63 -1.39,0.65z"/>
   <path class="fil1 str1" d="M263.2 294.37c0.06,-2.23 0.51,-3.91 1.91,-5.32 -3.04,-2.09 1,-0.42 -2.12,-2.33 -0.11,-0.07 -1.32,-0.81 -1.36,-0.83 1.44,2.53 0.63,1.49 0.79,4.17l0.78 4.31z"/>
   <path class="fil0 str0" d="M315.32 259.75l-0.48 -1.67 1.26 -0.18c-1.6,-1.32 -4.98,-2.16 -7.01,-0.69 1.25,1.37 2,0.44 3.85,0.95l0.8 0.3c0.15,0.08 0.5,0.39 0.63,0.49 0.1,0.07 0.21,0.2 0.3,0.27l0.64 0.54z"/>
   <path class="fil1 str1" d="M309.77 327.74l0.27 1.24c3.29,0.16 0.59,-0.07 3.75,-1.12 1.54,-0.51 2.28,-0.15 3.8,-0.75 -1.77,-1.27 -1.47,-0.69 -2.96,-0.49 -1.61,0.2 -3.54,0.61 -4.86,1.12z"/>
   <path class="fil1 str1" d="M279.15 311.31l-0.1 1.06 0.53 1c2.83,0.3 2.26,-0.04 3.24,-1.08l-1.7 -0.75c0.7,-1.28 1.23,-1.39 -0.24,-2.35l-1.72 2.12z"/>
   <path class="fil1 str1" d="M386.64 260.36l-0.11 -1.92c1,-1.02 -1.07,0.49 0.91,-0.68 0.1,-0.06 0.8,-0.31 0.97,-0.36 -5.13,-0.75 0.19,-0.57 -3.38,-0.69 -0.45,0.48 -1.4,-0.18 -0.07,2.06 -2.57,0.93 -0.29,-0.08 -1.29,1.14 2.18,0.69 1.26,0.84 2.97,0.45z"/>
   <path class="fil1 str1" d="M277.46 315.63l0.45 -0.18 2.61 0.68 -0.94 -2.77 -0.53 -1 0.1 -1.06 -0.77 -0.58c-1.01,0.95 -0.29,-1.15 -1.05,1.37 -0.6,1.98 0.83,1.31 1.14,2.91 -0.23,1.18 0.13,-0.02 -1.02,0.61z"/>
   <path class="fil1 str1" d="M335.24 197.58c1.08,-1.03 1.2,-1.53 1.49,-2.92l-4.91 -1.45 3.43 4.38z"/>
   <path class="fil1 str1" d="M52.91 240.53c-0.82,2.99 -0.19,0.91 0.14,1.74l2.13 -0.71 1.21 -1.67c-0.13,-1.51 0.44,-0.53 -0.72,-1.21 -1.46,0.18 -2.06,0.56 -2.76,1.86z"/>
   <path class="fil1 str1" d="M264.03 260.86c0.12,0.09 0.31,0.08 0.37,0.27l1.47 0.88c1.4,-5.01 1.06,-4.37 -1.16,-4.83 -0.27,1.56 0.04,1.39 -0.68,3.67z"/>
   <path class="fil1 str1" d="M281.77 301.78c1.77,0.16 3.13,-1.35 3.58,-3.61 -1.4,0.19 -3.47,0.73 -3.86,2.36 -0.57,2.39 -0.02,0.47 0.28,1.25z"/>
   <path class="fil1 str1" d="M353.29 322.14c0.37,-1.26 0.02,-1.14 1.18,-2.04l-1.48 -0.32c-0.32,0.57 -0.1,0.31 -0.36,1.18 -1.03,3.42 -1.18,0.91 -1.82,3.02 2.13,0.87 3.52,-0.94 4.52,-2.06l-2.04 0.22z"/>
   <path class="fil1 str1" d="M363.54 217.73c1.77,1.62 0.95,0.33 1.79,2.1 0.05,0.12 0.05,0.28 0.11,0.4l0.36 0.72c0.65,0.59 -0.86,0.34 1.92,0.51l-2.06 -5.09c-0.85,1.02 -0.48,-1.19 -0.75,1.41l-1.36 -0.05z"/>
   <path class="fil1 str1" d="M41.49 262.47l2.68 0.47 0.35 -1.18c0.92,-1.64 -0.21,1.4 0.73,-1.95 -0.71,0.22 -1.4,0.43 -2.12,0.56l-1.01 -0.05c-0.28,-0.46 -0.54,0.58 -0.47,-1.95l-0.16 4.09z"/>
   <path class="fil1 str1" d="M370.85 246.53c-0.41,-1.96 -0.08,-1.71 0.59,-3.28 -1.53,0.4 -1.13,0.19 -1.77,1.4l-0.6 -0.46c-1.94,-0.75 1.04,-0.48 -0.69,-0.16l-2.06 1.18c1.08,0.99 0.26,0.69 1.99,0.81 1.79,0.12 0.53,-0.18 2.54,0.51z"/>
   <path class="fil1 str1" d="M269.65 261.9l1.59 1.95c0.06,0.11 0.18,0.42 0.28,0.56l1.92 -0.83 -1.81 -1.68c0.24,-0.38 0.57,-1.07 0.58,-1.11 0.01,-0.1 -0.33,-1.05 -0.37,-1.22 -0.11,0.06 -0.28,0.04 -0.32,0.2 -0.04,0.16 -0.24,0.17 -0.29,0.22l-1.25 1.55c-0.07,0.09 -0.21,0.24 -0.32,0.36z"/>
   <path class="fil1 str1" d="M47.05 260.85l2.38 -0.25c1.78,1.18 0.03,-0.18 1.23,0.78l0.11 -2.09 -1.98 -0.28 -0.3 -1.36c-1.25,1.17 -1.75,1.46 -1.44,3.2z"/>
   <path class="fil1 str1" d="M340.89 339.5l-0.33 -0.9c-1.97,0.57 -2.11,-0.27 -4.07,0.84 0.55,0.95 0.14,0.53 0.84,1.28 1.32,1.44 0.26,0.55 1.35,0.86 2.07,-2.11 -0.44,-0.91 2.21,-2.09z"/>
   <path class="fil1 str1" d="M275.16 242.09l2.29 -0.86c1.71,-0.7 1.04,-0.29 1.95,-1.62l-4.56 -0.09 0.31 2.57z"/>
   <path class="fil1 str1" d="M392.67 254.31c1.17,0.98 1.13,0.74 0.63,2.52l-1.89 0.22c-0.06,0.02 -0.21,0.1 -0.31,0.16 0.97,0.76 0.05,0.53 1.99,0.79 2.2,0.56 0.54,0.27 1.27,-0.65 0.64,-0.82 1.05,-4.75 -1.7,-3.04z"/>
   <path class="fil1 str1" d="M151.54 241.61c-1.56,0.44 -1.33,0.69 -3.37,-0.52l-1.56 0.76c0.33,2.17 -0.22,0.77 1.5,1.34 0.92,0.3 1.96,0.11 2.67,0.06l0.76 -1.63z"/>
   <path class="fil1 str1" d="M304.55 209.21c0.39,0.99 -0.3,0.54 1.68,1.1 0.07,0.02 0.21,0.1 0.28,0.12 0.75,0.16 -0.51,0.34 0.65,0.17 1.62,-0.24 1.08,-1.84 1.04,-2.65 -1.6,0.14 -2.53,0.33 -3.65,1.26z"/>
   <path class="fil1 str1" d="M127.63 265.87c-0.01,0.17 -0.04,1.11 -0.01,1.26 0.23,1.19 0.26,1.07 0.47,1.55 0.09,-1.71 -0.23,-1.16 1.6,-1.21 0.05,-0.12 0.16,-0.41 0.19,-0.33l0.6 -0.93c0.47,-1.1 0.32,-0.3 0.2,-1.39l-0.53 -0.23 -0.93 0.11 -1.58 1.17z"/>
   <path class="fil0 str0" d="M319.09 273.42c2.57,0.9 -0.71,0.76 2.53,2.18 -0.02,-0.63 0.2,-2.21 0.2,-2.22 -0.08,-2.12 0.5,1.24 -0.09,-0.91 -0.76,-2.77 2.4,0.59 -0.52,-0.7l-2.42 0.23 0.3 1.42z"/>
   <path class="fil1 str1" d="M42.04 269.9c0.09,0.55 0.19,1.6 0.35,2.15 0.59,2.15 0.37,1.12 1.01,1.77l-0.43 -1.47c1.47,-1.07 1.4,-0.67 1.68,-2.57 -2.9,-1.36 -2.24,-0.36 -2.61,0.12z"/>
   <path class="fil1 str1" d="M306.7 331.14l2.28 -0.59 -0.65 -2.49 -1.78 0.29c-0.02,0.07 -0.02,0.1 -0.03,0.16 -0,0.07 -0.03,0.14 -0.03,0.16 -0.01,0.03 -0.03,0.18 -0.04,0.21l-1 1.96c3.32,-1.25 0.37,-0.27 1.24,0.31z"/>
   <path class="fil1 str1" d="M47.23 246.45c2.19,0.93 2.72,-0.06 3.76,-2.11l-2.24 -0.07c-0.02,0.02 -0.56,0.57 -0.63,0.67 -0.93,1.28 -0.24,0.21 -0.9,1.5z"/>
   <path class="fil1 str1" d="M340.56 338.6l0.33 0.9 0.98 -0.55c1.34,1.33 0.07,0.88 1.57,1.51 0.66,-1.96 0.41,-0.68 0.17,-2.93 -2.28,0.09 -1.9,-0.13 -3.05,1.07z"/>
   <path class="fil1 str1" d="M271.23 254.64l-0.38 1.18 2.51 -0.42c0.53,1.83 -0.37,0.23 1.15,1.12 -0.47,-1.54 -0.01,-0.87 -0.81,-1.61l0.55 -0.56c0.04,-0.22 0.24,-0.27 0.36,-0.39l-0.93 -0.37 -2.17 0.42 -0.26 0.63z"/>
   <path class="fil1 str1" d="M345.52 340.07c-0.19,2.13 -0.23,0.74 -0.71,2.53 2.15,-0.52 3.19,-1.28 3.86,-2.94l-3.15 0.42z"/>
   <path class="fil1 str1" d="M370.49 209.42c2.03,-1.47 2.24,-0.52 2.69,-2.3 -1.04,-1.37 -0.09,-1.08 -2.28,-0.9l-0.41 3.2z"/>
   <path class="fil1 str1" d="M349.49 229.25c1.96,-0.3 0.97,-0 2.12,-1.06 0.64,-0.58 -0.27,-0.37 1.04,-0.85l-2.28 -1.43c-0.89,1.68 -0.52,1.25 -0.88,3.34z"/>
   <path class="fil1 str1" d="M386.64 260.36c1.35,-0.08 0.83,0.42 1.74,-0.59 1.08,-1.21 0.46,0.31 0.57,-2.04l-0.55 -0.33c-0.16,0.06 -0.87,0.31 -0.97,0.36 -1.98,1.16 0.09,-0.34 -0.91,0.68l0.11 1.92z"/>
   <path class="fil1 str1" d="M383.28 315.14c1.35,-1.13 1.16,-0.56 2.59,-1.54 -1.53,-0.08 -1.42,-0.17 -2.16,-1.09l-0.68 0.43c-2.56,1.46 -0.14,-0.45 -2.19,0.66l2.45 1.54z"/>
   <path class="fil1 str1" d="M287.23 313.09c-0.7,-1.82 0.68,-0.27 -1.81,-1.67l0.59 -1.49 -2.29 0.01c0.03,2.8 -0.2,0.34 0.44,1.95l3.07 1.2z"/>
   <path class="fil1 str1" d="M293.87 323.55c0.95,0.27 0.13,0.29 1.21,0.19 0.11,-0.01 0.27,-0.04 0.38,-0.06 1.81,-0.43 1.49,-1.28 1.71,-2.02 -3.11,0.05 -2.51,-0.5 -3.31,1.9z"/>
   <path class="fil1 str1" d="M385.34 299.13c0.41,-1.8 0.91,-2.89 0.73,-4.95 -1.02,0.59 -0.75,0.06 -1.38,1.05 -0.57,0.9 -0.09,2.79 0.65,3.9z"/>
   <path class="fil1 str1" d="M386.67 229.04c0.42,0.2 0.27,0.31 1.26,0.46 0.58,0.09 1.01,0.04 1.56,0.06 0.37,-3.54 -1.93,-2.84 -2.82,-0.51z"/>
   <path class="fil1 str1" d="M351.72 330.98l1.14 0.77c0.14,-0.16 0.25,-0.41 0.28,-0.33l1.13 -0.91c0.45,-0.25 1.26,-0.47 1.78,-0.78 -0.46,-1.48 -0.03,-0.9 -1.02,-2.23l0.55 1.99c-2.47,-0.16 -2.08,-0.25 -3.87,1.5z"/>
   <path class="fil1 str1" d="M348.74 334.29c-0.59,1.89 -0.67,0.24 -0.1,1.68l1.23 1.74c1.04,-1.29 0.35,-0.82 1.86,-1.32l-2.02 -0.77 0.51 -1.56 -1.49 0.23z"/>
   <path class="fil1 str1" d="M330.67 337.65c0.3,1.14 0.27,2.82 1.58,2.88 1.64,0.07 0.56,-0.23 0.22,-1.56 -0.27,-1.07 0.37,-2.43 -1.8,-1.31z"/>
   <path class="fil1 str1" d="M146.58 256.71l0.24 0.87c1.9,-0.56 0.62,0.08 1.65,-0.63 1.43,-0.99 0.8,-0.74 1.48,-1.67l-0.4 -0.65c-0.13,0.09 -0.88,0.55 -1.14,0.7 -0.14,0.08 -0.57,0.27 -0.69,0.35 -1.03,0.65 -0.38,0.07 -1.13,1.05z"/>
   <path class="fil1 str1" d="M273.67 253.6l0.93 0.37c-0.12,0.12 -0.32,0.17 -0.36,0.39l-0.55 0.56c0.81,0.74 0.34,0.07 0.81,1.61l0.75 -0.86c0.74,-0.83 0.52,-0.05 0.75,-2.74l-2.33 0.67z"/>
   <path class="fil1 str1" d="M395.75 281l0.78 -1.98 -0.66 -1.43c-2.97,-1.09 -0.61,-0.48 -1.62,0.47l1.5 2.93z"/>
   <path class="fil1 str1" d="M309.77 339.39c2.48,0.84 0.38,1.2 2.65,0.42 -0.37,-1.03 -0.14,-1.31 -2.14,-1.95 -0.51,-0.16 -0.55,-0.09 -1.1,-0.12 0.52,0.91 0.34,0.86 0.6,1.65z"/>
   <path class="fil1 str1" d="M385.83 249.38c1.09,0.93 -0.75,-0.03 1.85,0.65 2.07,0.54 1.35,0.41 1.83,-0.92 -1.09,-0.55 -3.13,-1.02 -3.68,0.27z"/>
   <path class="fil1 str1" d="M295.49 330.43l-3.47 -2.03c1.02,1.68 0.19,1.36 1.49,3.01 1.96,-0.27 0.83,0.28 1.98,-0.97z"/>
   <path class="fil0 str0" d="M296.23 290.37l-0.06 -1.29c1.64,0.42 0.91,0.31 1.6,-0.04l-0.78 -1.64c-1.35,-0.32 0.64,-0.57 -0.7,0.15 -0.08,0.04 0.01,1.78 -0.46,0.4 -0.03,-0.09 -0.14,0.17 -0.18,0.21l-0.97 -1.52c0.19,1.18 -0.01,0.87 0.41,2.01 0.78,2.12 -0.26,-0.32 0.33,0.72 0.44,0.78 0.43,0.57 0.81,1z"/>
   <path class="fil1 str1" d="M272.47 309.8l1.14 0.44c0.3,-0.98 -0.24,-1.32 0.48,-0.78l0.47 0 -1.38 -2.37c-1.26,-0.27 -1.09,-0.59 -0.81,0.62l0.1 2.08z"/>
   <path class="fil1 str1" d="M371.44 328.18c0.51,-0.02 1.21,0.04 1.76,-0.15 1.06,-0.38 0.72,-0.39 1.17,-0.92l-2 -0.63 -1.35 -0.34 0.42 2.04z"/>
   <path class="fil1 str1" d="M362.25 250.95c0.61,0.79 -0.56,0.5 0.84,0.85 1.9,0.47 2.12,-1.21 1.08,-1.78 -1.86,-1.04 -1.22,0.23 -1.93,0.94z"/>
   <path class="fil1 str1" d="M274.36 288.5c-0.59,2.46 0.68,1.31 1.06,1.34l0.55 0.11c0.06,-0.01 0.25,-0.03 0.31,-0.04l-0.12 -2.28c-3.72,0.15 -0.38,-0.15 -1.8,0.87z"/>
   <path class="fil1 str1" d="M245.59 266.54c0.93,1 -1.14,0.19 1.19,1.1 -0.28,0.12 -0.64,0.75 -0.98,1.13l1.46 -0.24 0.49 -1.13 -0.53 -2.8c-0.77,0.49 -0.61,-0.32 -0.66,0.85 -0.01,0.16 0.44,1.28 0.48,1.4l-1.46 -0.3z"/>
   <path class="fil1 str1" d="M149.68 285.2c0.99,2.53 0.47,1.63 -0.27,2.54 0.48,-0.39 0.75,-0.59 1.28,-0.88l2.06 -3.43c-3.64,1.43 -0.79,0.68 -3.07,1.77z"/>
   <path class="fil1 str1" d="M382.08 284.55l2.98 -0.61c-0.79,-1.55 -0.79,-0.76 -1.56,-2.25 -0.1,0.09 -0.27,0.12 -0.29,0.3l-0.79 1.63c-0.04,0.12 -0.12,0.34 -0.16,0.44 -0.04,0.11 -0.13,0.32 -0.18,0.49z"/>
   <path class="fil1 str1" d="M373.33 325.52l1.58 0.5 -0.06 -1.19c-0.41,-1.77 0.32,-0.84 -1.52,-1.53 -0.69,1.43 -0.66,0.84 -0,2.22z"/>
   <path class="fil1 str1" d="M170.55 269.33l2.01 2.32 0.56 -0.12 -0.22 -2.67c-2.33,1.02 -1.33,0.33 -2.08,-0.13l-0.28 0.6z"/>
   <path class="fil1 str1" d="M341.01 201.9c0.29,0.31 0.51,0.73 0.86,1.16 0.62,0.77 0.27,0.55 1.21,1.21 1.83,-0.36 0.91,0.07 1.91,-0.94l-3.98 -1.43z"/>
   <path class="fil1 str1" d="M375.06 230.21c0.13,1.56 -0.28,0.48 0.87,2.01 0.67,-0.8 0.52,0.77 0.58,-1.07 0,-0.11 -0.25,-0.76 -0.33,-0.92l1.89 -0.16c-0.53,-0.36 0.99,-0.8 -1.57,-0.57 -0.7,0.06 -1.23,0.37 -1.44,0.69z"/>
   <path class="fil1 str1" d="M287.23 313.09l0.79 -2.16 -2.01 -1 -0.59 1.49c2.5,1.4 1.11,-0.15 1.81,1.67z"/>
   <path class="fil1 str1" d="M128.12 269.24l1.87 0.9 -0.32 -2.67c-1.83,0.06 -1.51,-0.5 -1.6,1.21l0.04 0.56z"/>
   <path class="fil1 str1" d="M287.97 277.31c2.57,-0.38 1.78,0.33 2.31,-2.18 -3.05,0.59 -1.66,-0.77 -2.31,2.18z"/>
   <path class="fil1 str1" d="M370.85 246.53c0.58,0.73 0.24,0.51 1.32,0.83l1.17 -2.28c1.43,-1.55 1.01,-0.34 -0,-0.99l-2.48 2.43z"/>
   <path class="fil1 str1" d="M146.07 245.36l0.12 2.46c0.92,-0.75 0.5,-0.23 1.17,-1.3l1.32 -2.34c-2.34,1.22 -0.9,0.93 -2.61,1.19z"/>
   <path class="fil1 str1" d="M391.31 296.62l0.1 -0.61c0.15,1.52 -0.08,0.63 1.41,1.05l-0.17 -2.76 -1 0.57c-0.07,0.04 -0.25,0.12 -0.3,0.15 -0.74,0.37 -0.64,-0.11 -0.04,1.6z"/>
   <path class="fil1 str1" d="M134.36 267.08l-1.94 -3.16 -1.35 1.89c1.79,0.31 1.44,0.38 3.29,1.27z"/>
   <path class="fil1 str1" d="M265.37 255.64c1.14,0.36 1.29,-0.21 0.68,0.74l2.38 -0.64c-0.52,-0.58 -1.32,-1.45 -2.78,-1.37l-0.28 1.28z"/>
   <path class="fil1 str1" d="M327.94 343.28c1.01,-1.56 1.02,-1.67 -0.08,-2.92 -0.06,0.08 -0.16,0.1 -0.18,0.23 -0.22,1.32 -2.55,1.46 0.26,2.68z"/>
   <path class="fil1 str1" d="M41.47 264.7c1.73,-0.6 1.12,-0.3 2.7,-1.75l-2.68 -0.47 -0.02 2.23z"/>
   <path class="fil1 str1" d="M172.57 271.65l-2.01 -2.32c-1.13,0 -0.81,-0.25 -0.7,0.98l0.56 1.18 2.15 0.16z"/>
   <path class="fil1 str1" d="M369.68 219.84c1.38,-1.03 1.06,-0.24 1.46,-2.28 -0.72,-0.45 0.16,-0.13 -0.84,-0.3 -3.02,-0.5 1.37,0.84 -1.02,-0.11l0.41 2.69z"/>
   <path class="fil0 str0" d="M296.17 281c0.87,0.62 0.83,0.34 1.63,0.61l0.32 -1.49c0.01,-0.05 0.05,-0.19 0.07,-0.23 0.5,-1.61 0.31,0.99 0.38,-1.21 -1.72,0.94 -1.39,0.71 -2.4,2.32z"/>
   <path class="fil1 str1" d="M288.02 287.71c2.25,-0.43 1.6,0.71 2.03,-2 -2.5,0.52 -2.14,-0.46 -2.03,2z"/>
   <path class="fil1 str1" d="M375.49 249.14c2.53,-0.86 1.81,-0.01 2.33,-2.61 -1.94,0.91 -1.74,0.1 -2.33,2.61z"/>
   <path class="fil1 str1" d="M217 270.85c1.19,0.14 1.24,0.6 3.32,-0.51 0.71,-0.38 0.66,-0.46 1.04,-0.76 -2.22,0.18 -3.46,0.07 -4.36,1.27z"/>
   <path class="fil1 str1" d="M194.78 268.76l-2.4 -0.7c-0.6,2.06 -0.95,1.34 1.2,1.62 1.5,0.19 1.05,-0.48 1.2,-0.92z"/>
   <path class="fil1 str1" d="M190.78 258.3l-0.22 -1.21 -3.43 0.3c0.68,0.66 -0.02,0.57 1.17,0.8 0.59,0.11 1.89,0.09 2.48,0.11z"/>
   <path class="fil1 str1" d="M48.75 244.27l2.24 0.07c0.78,-0.93 0.05,0.21 -0.69,-2.26 -0.21,0.25 -0.67,0.77 -0.85,1.03 -0.54,0.79 -0.16,0.2 -0.7,1.16z"/>
   <path class="fil1 str1" d="M266.09 284.6c-0.7,-1.76 1.01,-1.26 -2.12,-1.76 0.48,2.19 -0.54,1.71 2.12,1.76z"/>
   <path class="fil1 str1" d="M392.74 283.22l0.01 -0.34 -0.81 -1.06c-0.05,-0.23 -0.24,-0.23 -0.33,-0.37 -0.6,2.21 -0.21,0.41 -1.1,2.58 2.31,-0.26 0.61,0.34 2.23,-0.82z"/>
   <path class="fil1 str1" d="M245.59 266.54l1.46 0.3c-0.04,-0.11 -0.48,-1.24 -0.48,-1.4 0.04,-1.17 -0.11,-0.36 0.66,-0.85l-0.52 -0.7c-0.42,0.51 -0.89,1.05 -1.54,1.66 0.08,0.11 0.13,0.21 0.15,0.39 0.02,0.22 0.19,0.45 0.28,0.6z"/>
   <path class="fil1 str1" d="M368.53 263.94c0.15,0.14 0.26,0.18 0.31,0.34l1.5 0.65c0.74,-3.86 0.35,-1.1 -1.03,-2.15l-0.79 1.17z"/>
   <path class="fil1 str1" d="M376.36 286.07c-0.16,0.94 -0.46,0.71 0.62,1.84 0.07,-0.08 0.48,-0.47 0.72,-0.71 0.07,-0.07 0.2,-0.19 0.27,-0.27l0.59 -0.63c0.08,-0.08 0.21,-0.24 0.31,-0.35l-2.51 0.13z"/>
   <path class="fil1 str1" d="M307.01 324.19l2.2 -0 0.22 -2.08c-0.15,0.09 -0.35,0.18 -0.48,0.26l-1.21 0.81c-1.12,0.96 0.2,-0.64 -0.73,1.02z"/>
   <path class="fil1 str1" d="M273.69 314.94c0.12,-0.09 0.82,-0.13 0.8,-0.89 -0.05,-2.57 -0.14,-0.57 -0.8,-1.27 -0.18,0.3 -1.58,0.24 0,2.16z"/>
   <path class="fil1 str1" d="M107.11 265.88c0.86,0 0.81,-1.27 1.04,-2.15l-2.59 -0.11c0.91,1.35 -0.77,0.85 1.83,0.68l-0.28 1.57z"/>
   <path class="fil1 str1" d="M387.98 283.24l0.31 1.36 1.07 -0.19 -0.38 -2.29c-1.15,0.39 -0.68,-0.23 -1,1.12z"/>
   <path class="fil1 str1" d="M338.72 204.37c0.42,-0.57 0.53,-0.14 0.54,-1 0.01,-1.01 0.02,-0.41 -0.36,-1.21 -0.03,0.03 -2.51,-1.27 -0.18,2.21z"/>
   <path class="fil1 str1" d="M265.8 298.89c0.09,0.1 0.21,0.13 0.26,0.3 0.05,0.17 0.22,0.24 0.29,0.29 0.68,0.47 0.33,0.25 1.12,0.63 0.4,-1.65 0.26,-0.52 0.35,-2.05 -2.09,0.33 -0.05,-0.11 -2.03,0.82z"/>
   <path class="fil1 str1" d="M195.19 258.02c0.62,0.65 -0.08,0.24 0.93,0.8 0.82,0.46 0.86,0.35 1.62,0.63l0.03 -1.77c-1.03,0.44 -1.12,0.51 -2.58,0.34z"/>
   <path class="fil1 str1" d="M367.47 202.8c0.47,-2.18 1.23,-1.49 -1.21,-2.22 -0.05,1.65 0.23,1.44 1.21,2.22z"/>
   <path class="fil1 str1" d="M292.24 212.87l-0.15 1.11c2.38,-0.38 0.66,0.63 1.62,-1.11 -0.14,-0.12 -0.17,-2.25 -1.47,0z"/>
   <path class="fil1 str1" d="M87.54 249.69l-1.1 -0.49c-0.08,-0.21 -0.28,-0.19 -0.42,-0.3 0.34,1.74 0.11,1.41 0.97,2.6 0.83,-0.96 0.5,-0.77 0.55,-1.81z"/>
   <path class="fil1 str1" d="M147.69 283.81c3.79,-1 0.94,-0.49 2.32,-2.51 -0.78,0.35 -0.52,0.11 -1.06,0.71 -0.5,0.56 -0.67,0.92 -1.27,1.81z"/>
   <path class="fil1 str1" d="M319.22 327.18c0.97,-0.45 0.67,-0.28 1.21,-0.87l-2.33 -0.31 -0.27 1.22 1.4 -0.04z"/>
   <path class="fil1 str1" d="M259.58 263.51l-0.62 0.79c0.66,1.17 -1.16,1.22 1.28,0.82l0.09 -2.11 -0.75 0.5z"/>
   <path class="fil1 str1" d="M273.61 310.24l-1.14 -0.44c-0.26,1.57 -0.05,1.3 0.7,2.08 0.86,-1.03 0.73,0.34 0.44,-1.63z"/>
   <path class="fil1 str1" d="M366.02 233.4c0.73,-1.71 0.84,-1.02 -0.52,-1.91 -0.32,0.55 -1.22,-1.2 -0.34,1.05 0.43,1.1 -0.1,0.28 0.86,0.86z"/>
   <path class="fil0 str0" d="M319.99 267.53c-0.87,-2.12 -0.03,-1.39 -1.94,-2.03 0.42,1.72 -0.25,1.07 1.94,2.03z"/>
   <path class="fil1 str1" d="M368.54 207.49c1.03,-0.52 0.62,-0.43 1.15,-1.56 -0.82,0.23 -3.81,0.77 -1.15,1.56z"/>
   <path class="fil1 str1" d="M383.06 249.9c0.27,0.16 0.04,1.68 2.41,0 -0.9,-0.4 -0.84,-0.88 -2.41,0z"/>
   <path class="fil1 str1" d="M388.46 307.88l2.61 -0.65c-0.99,-0.82 -0.28,-0.37 -1.56,-0.9 -0.75,0.75 -0.39,0.49 -1.05,1.55z"/>
   <path class="fil1 str1" d="M390.09 297.31c-0.47,-1.73 -0.02,-0.04 -0.59,-0.9 -1.1,1.45 -0.26,1.48 0.52,2.27 0.13,-0.39 0.65,0.79 0.07,-1.37z"/>
   <path class="fil1 str1" d="M366.12 206.38c0.56,-0.15 2.06,0.28 1.57,-1.52 -0.86,-0.02 -0.68,-0.53 -1.57,1.52z"/>
   <path class="fil1 str1" d="M264.87 253.96c0.19,-0.23 0.7,0.54 0.52,-0.94 -0.16,-1.25 0.03,-0.3 -0.56,-0.87 -1.49,1.82 -1.1,0.84 0.04,1.81z"/>
   <path class="fil1 str1" d="M278.11 294.45c2.09,-0.02 1.09,0.15 1.72,-1.25 -1.44,-0.46 -1.28,-0.02 -1.72,1.25z"/>
   <path class="fil1 str1" d="M381.24 217.93c1.43,0.21 1.1,0.06 1.56,-0.89 -0.75,-0.27 -2.25,-0.72 -1.56,0.89z"/>
   <path class="fil1 str1" d="M273.29 228.47c2.07,1.66 1.39,0.66 2.02,-0.72l-2.02 0.72z"/>
   <path class="fil1 str1" d="M285.69 293.94c3.03,-0.92 1.05,0.24 1.56,-1.26 -1.93,-0.71 -0.89,0.42 -1.56,1.26z"/>
   <path class="fil1 str1" d="M130.14 264.59l0.53 0.23c0.49,-1.38 0.33,-1.41 -1.09,-1.63l0.56 1.4z"/>
   <path class="fil1 str1" d="M368.25 250.27c1.8,0.38 0.56,0.58 1.98,-0.37 -0.29,-0.17 0.33,-0.54 -0.94,-0.29 -0.32,0.06 -0.99,0.44 -1.04,0.66z"/>
   <path class="fil1 str1" d="M359.8 232.16c2.18,-1.15 0.8,0.22 1.46,-1.52 -3.55,0.52 0.28,0.04 -1.46,1.52z"/>
   <path class="fil1 str1" d="M350.29 196.14l-1.22 -1.53c0.46,2.13 -1.34,1.72 1.22,1.53z"/>
   <path class="fil1 str1" d="M151.04 255.47c0.21,1.1 -1.2,1.09 0.98,0.79 -0.54,-2.08 0.08,-0.25 -0.93,-1.04l-0.06 0.25z"/>
   <path class="fil1 str1" d="M321.31 334.94l-0.14 0.12c1.43,-0.62 1.74,1.11 0.98,-1.06 -1.41,0.25 -0.58,-0.31 -0.84,0.93z"/>
   <path class="fil1 str1" d="M384.3 224.86c0.9,0.44 -0.09,0.74 1.6,0 -1.25,-1.02 -1.21,-0.3 -1.6,0z"/>
   <polygon class="fil1 str1" points="127.55,264.97 127.63,265.87 129.21,264.7 "/>
   <path class="fil1 str1" d="M133.02 269.77c0.11,1.44 -0.42,0.41 0.42,1.12 0.44,-0.79 1.68,-0.26 -0.42,-1.12z"/>
   <path class="fil0 str0" d="M317.37 270.82c0.59,0.26 -0.97,1.77 1.31,-0.04l-0.98 -0.13c-0.04,-0.13 -0.21,0.13 -0.33,0.17z"/>
   <path class="fil1 str1" d="M170.4 272.86c0.5,0.19 -0.27,0.77 1.34,0 -0.79,-0.64 -0.61,-0.61 -1.34,0z"/>
   <path class="fil1 str1" d="M383.81 296.33c-0.76,-0.54 0.44,-0.34 -0.92,-0.31 -1.91,0.03 0.46,-0.53 -0.58,0.55l1.5 -0.24z"/>
   <path class="fil1 str1" d="M288.82 267.74l0.2 -1.3c-1.18,1.47 -1.58,-2.2 -0.48,0.98 0.02,0.06 0.16,0.24 0.29,0.31z"/>
   <path class="fil1 str1" d="M100.99 267.12c-0.22,0.97 1.22,-0.25 0.24,-0.06 -0.01,0 -0.22,-0.02 -0.24,0.06z"/>
   <path class="fil1 str1" d="M215.01 291.72c-2.36,0.68 -4.33,0.44 -6.81,0.44 1.5,-1.86 -2.22,-1.41 3.15,-1.65 1.35,-0.06 1.44,0.35 2.92,-0.15 -2.3,0.34 -4.37,-0.3 -6.05,0.76 0.8,1.5 0.8,1.03 3.1,1.03 1.66,-0.01 2.41,0.1 3.7,-0.42z"/>
  </g>
 </g>
</svg>
