<?xml version="1.0" encoding="UTF-8"?>
<!DOCTYPE svg PUBLIC "-//W3C//DTD SVG 1.1//EN" "http://www.w3.org/Graphics/SVG/1.1/DTD/svg11.dtd">
<!-- Creator: CorelDRAW -->
<svg xmlns="http://www.w3.org/2000/svg" xml:space="preserve" width="50.2mm" height="50.2mm" version="1.1" style="shape-rendering:geometricPrecision; text-rendering:geometricPrecision; image-rendering:optimizeQuality; fill-rule:evenodd; clip-rule:evenodd"
viewBox="0 0 544.02 544.02"
 xmlns:xlink="http://www.w3.org/1999/xlink"
 xmlns:xodm="http://www.corel.com/coreldraw/odm/2003">
 <defs>
  <style type="text/css">
   <![CDATA[
    .str3 {stroke:#FEFEFE;stroke-width:2.17;stroke-miterlimit:22.9256}
    .str1 {stroke:#373435;stroke-width:2.17;stroke-miterlimit:22.9256}
    .str2 {stroke:black;stroke-width:2.17;stroke-miterlimit:22.9256}
    .str0 {stroke:black;stroke-width:2.17;stroke-miterlimit:22.9256}
    .str4 {stroke:white;stroke-width:2.17;stroke-miterlimit:22.9256}
    .fil3 {fill:#FEFEFE}
    .fil2 {fill:black}
    .fil0 {fill:black}
    .fil1 {fill:white}
    .fil4 {fill:white}
   ]]>
  </style>
 </defs>
 <g id="Camada_x0020_1">
  <metadata id="CorelCorpID_0Corel-Layer"/>
  <circle class="fil0 str0" cx="272.01" cy="272.01" r="270.93"/>
  <g id="_1899041612976">
   <path class="fil1 str1" d="M218.38 194.65c-7.99,-6.37 1.99,-20.36 6.68,-24.23 5.58,-4.6 18.98,-8.97 24.11,0.73 5.7,6.33 -4.45,19.45 -9.04,22.87 -5.32,3.97 -16.81,8.82 -21.75,0.63zm23.43 -48.59c-8.13,-4.6 -2.06,-15.43 3.55,-19.86 2.66,-2.1 6.08,-4.05 10.38,-4.26 2.4,-0.12 4.63,0.14 6.84,1.1 3.08,1.34 2.88,2.08 3.1,3.77 0.68,1 0.76,-0.04 1.22,2.66 1.92,11.2 -15.78,23.92 -25.1,16.6zm-30.83 72.78c11.02,2.38 19.83,2.09 28.77,-1.05 22.31,-7.82 40.39,-31.66 33.77,-50.97 -1.48,-4.32 -3.43,-5.62 -4.64,-7.63 -1.98,-3.31 -0.75,0.67 -1.56,-3.88 5.19,-0.48 12.92,-5.96 16.13,-9.47 5.16,-5.65 6.59,-11.69 7.64,-21.03 -2.81,-6.35 -0.63,-7.64 -5.68,-13.13 -14.88,-16.18 -53.2,-9.85 -67.1,13.78 -8.21,13.95 -2.26,21.29 2.17,28.66 -6.52,4.31 -10.17,4.01 -17.18,10.77 -15.67,15.12 -20.26,45.52 7.69,53.94z"/>
   <path class="fil1 str2" d="M379.84 122.4l21.95 -0.09c-2.4,3.04 -8.79,9.31 -11.65,11.72 -3.59,3.78 -14.36,11.26 -10.13,18.6 3.49,6.05 13.98,4.44 17.6,13.4 4.51,11.14 -8.5,33.6 -26.82,30.04 -9.95,-3.42 -8.09,-11.2 -4.01,-20.26 0.5,-5.22 -0.32,-8.1 -4.66,-9.97 -24.4,-10.49 -38.98,50.91 5.87,51.19 29.89,2.69 51.78,-18.49 54.57,-43.4 1.58,-14.09 -4.34,-18.42 -6.26,-23.49 -1.96,-0.63 -4.41,-2.3 -6.42,-4.29 1.28,-2.93 12.1,-12.19 15.29,-15.6 5.06,-5.39 13.52,-10.79 13.17,-18.8 -0.05,-4.83 -1.3,-7.66 -6.54,-9.23 -6,-1.8 -30.51,-0.43 -38.23,-0.3 -9.41,0.16 -16.13,-1.03 -22.25,4.97 -2.49,2.44 -4.43,6.33 -3.11,10.38 1.39,4.28 6.86,4.64 11.63,5.13z"/>
   <path class="fil1 str1" d="M153.46 126.06c5.67,-1.82 10.86,0.6 13.25,4.48 6.12,9.94 -6.84,30.05 -19.66,33.07 -23.4,5.51 -15.18,-30.61 6.42,-37.55zm-30.73 55.65c6.01,1.4 11.44,1.35 15.79,2.29l-6.04 7.23c-4.39,8.98 -25.49,27.69 -1.39,30.82 10.07,-3.05 12.29,-6.6 19.4,-16.96 5.14,-7.49 11.09,-15.19 16.58,-22.94 10.63,-14.99 26.77,-30.01 25.72,-53.19 -3.41,-12.33 -9.78,-21.8 -26.81,-23.69 -40.77,-4.53 -65.16,41.27 -55.53,63.33 3,6.86 5.32,8.29 12.27,13.11z"/>
   <path class="fil2 str2" d="M291.1 124.82c-1.05,9.34 -2.48,15.38 -7.64,21.03 -3.2,3.51 -10.93,8.99 -16.13,9.47 0.81,4.55 -0.42,0.57 1.56,3.88 1.2,2 3.16,3.31 4.64,7.63 6.62,19.32 -11.46,43.15 -33.77,50.97 -8.94,3.14 -17.75,3.42 -28.77,1.05 1.02,2.92 -0.43,0.52 1.71,2.57 3.67,3.52 16.75,4.76 20.16,4.74 3.29,-0.02 7.03,-1.47 10.57,-2.03 5.1,-0.81 4.69,-2.46 9.9,-2.34 6.2,0.04 20.08,-13.95 24.12,-22.24 3.29,-6.74 4.95,-11.49 4.3,-19.88 -0.49,-6.37 -3.43,-10.82 -6.47,-16.02 3.68,-3.15 8.95,-4.13 12.88,-8.41 0.82,-2.93 2.3,-4.28 4.57,-8.76 4.6,-9.09 3.99,-15.08 0.81,-24.08 -2.56,1.04 -1.31,-2.64 -2.43,2.42z"/>
   <path class="fil2 str2" d="M192.79 128.96c1.04,23.19 -15.09,38.2 -25.72,53.19 -5.49,7.74 -11.44,15.45 -16.58,22.94 -7.11,10.36 -9.34,13.91 -19.4,16.96l-1.68 2.83c8.37,2.32 7.92,1.29 15.08,1.8 8.07,-4.61 23.63,-28.53 29.44,-37.13 2.91,-4.3 7.78,-9.22 9.47,-13.32 -0.41,-3.54 -1.04,0.14 2.8,-5.94 6.25,-9.91 12.89,-19.78 12.02,-32.18 -0.19,-2.64 -0.15,-7.6 -2.95,-9.06l-2.47 -0.09z"/>
   <path class="fil1 str1" d="M285.59 233.16c3.57,-1.79 4.45,-1.56 8.1,-4.04 2.78,-1.89 5.19,-3.11 8.41,-5.78 4.5,-3.74 11.21,-9.9 11.89,-17.59 0.33,-9.96 -9.11,-15.06 -18.29,-11.31 -15.19,6.2 -6.69,19.43 -7.05,20.94 -0.96,3.93 -18.59,16.01 -3.06,17.79z"/>
   <path class="fil2 str2" d="M253.32 221.78c-5.22,-0.12 -4.8,1.53 -9.9,2.34 -3.54,0.56 -7.28,2.01 -10.57,2.03 -3.41,0.02 -16.49,-1.21 -20.16,-4.74 -2.14,-2.05 -0.69,0.35 -1.71,-2.57 -27.94,-8.42 -23.36,-38.83 -7.69,-53.94 7.01,-6.76 10.66,-6.46 17.18,-10.77 -4.43,-7.37 -10.38,-14.71 -2.17,-28.66 13.9,-23.63 52.23,-29.96 67.1,-13.78 5.05,5.49 2.87,6.78 5.68,13.13 1.12,-5.05 -0.13,-1.37 2.43,-2.42 3.18,9 3.79,14.99 -0.81,24.08 -2.27,4.48 -3.75,5.83 -4.57,8.76 2.86,-1.34 4.08,-3.03 6.26,-6.87 6.73,-11.89 4.31,-20.74 -1.73,-30.13 -8.18,-12.72 -14.53,-18.3 -34.86,-17.56 -13.05,0.47 -26.24,7 -34.26,14.43 -19.79,18.34 -7.83,35.05 -8.73,37.63 -1.52,4.35 -12.28,5.04 -21.35,20.44 -6.07,10.3 -7.48,25.22 -1.88,34.17 8.67,13.86 29.7,22.81 46.24,19.99 2.67,-0.46 5.77,-0.97 8.09,-1.68 4.29,-1.31 5.16,-0.61 7.4,-3.86z"/>
   <path class="fil2 str2" d="M383.93 190.67l0.3 1.31c-4.69,1.24 -6.37,2.8 -12.64,1.57 4.53,-21.71 3.43,-11.03 -1.18,-20.82 -2.68,-5.69 -6.45,-12.82 -17.89,-9.42 -0.2,0.06 -0.45,0.14 -0.64,0.2 -1.49,0.48 -0.6,0.04 -2.42,0.92l-3.99 2.44c-0.16,0.09 -0.61,0.57 -0.69,0.38 -0.07,-0.19 -0.46,0.27 -0.7,0.38 -1.19,2.97 -4.83,3.83 -7.24,14.89 -2.48,11.33 0.25,12.74 -0.31,17.49 5.18,3.83 3.39,8.29 14.08,14.68 13.84,8.27 25.16,13.85 44.62,8.05l17.98 -10.64c-4.42,0.82 -9.72,5.63 -10.95,6.31 -11.13,6.15 -32.49,4.21 -38.49,1.61 -3.39,-1.47 -1.53,-0.46 -3.12,-2.22 3.57,-2.16 5.65,-0.51 7.35,-0.78 -44.86,-0.28 -30.27,-61.68 -5.87,-51.19 4.35,1.87 5.16,4.75 4.66,9.97l1.27 -1.55c6.97,9.47 3.96,4.11 1.35,18.86l3.1 2c-2.86,-0.14 -0.63,-0.27 -1.71,0.95 18.32,3.56 31.33,-18.9 26.82,-30.04 -3.63,-8.96 -14.11,-7.35 -17.6,-13.4 -4.23,-7.34 6.54,-14.82 10.13,-18.6 -0.3,-1.04 0.84,0.22 -0.87,-2.08 -3.72,1.5 -11.57,11.53 -11.68,11.95 -1.6,7.07 -0.31,10.89 4.05,13.79 2.83,1.88 11.78,6.13 12.78,8.08 3.23,6.32 -1.02,16.26 -5.07,20.98 -2.15,2.5 -2.61,2.9 -5.42,3.93z"/>
   <path class="fil2 str2" d="M114.01 129.03c-2.34,6.74 -4.69,7.46 -6.54,15.61 -1.46,6.44 -2.1,8.25 -1.68,15.55 0.61,10.55 7.01,20.8 16.96,23.57l-0.02 -2.07c-6.96,-4.81 -9.28,-6.25 -12.27,-13.11 -9.64,-22.06 14.76,-67.86 55.53,-63.33 17.03,1.89 23.4,11.36 26.81,23.69l2.47 0.09c2.81,1.46 2.77,6.42 2.95,9.06 0.87,12.41 -5.76,22.28 -12.02,32.18 -3.84,6.09 -3.21,2.4 -2.8,5.94l11.47 -15.5c6.32,-11.23 8.06,-24.86 0.74,-35.83l-0.74 -1.05c-0.1,-0.15 -0.26,-0.36 -0.36,-0.51 -0.14,-0.22 -0.52,-0.84 -0.65,-1.06 -2.14,-3.87 -1.85,-4.6 -5.52,-8.53l-4.89 -4.36c-2.43,-2.6 -0.64,-0.36 -1.8,-2.56 -2.35,0.03 -6.47,-2.4 -9.91,-3.24 -3.75,-0.91 -7.95,-1.35 -11.62,-1.39 -6.62,-0.08 -13.85,1.48 -19.27,3.89 -9.58,4.25 -14.91,8.73 -21.36,16.36 -1.48,1.74 -3.62,5.96 -5.47,6.59z"/>
   <path class="fil2 str2" d="M158.27 152.65c-1.73,5.23 -10.83,10.94 -18.36,8.33 0.58,-6.35 2.79,-12.12 6.01,-16.33 2.12,-3.45 3.81,-5.91 7.42,-8.6 3.14,-2.34 7.17,-4.09 11.49,-2.93 2.79,6.45 -0.86,16.02 -6.56,19.53zm-4.81 -26.59c-21.6,6.94 -29.82,43.06 -6.42,37.55 12.83,-3.02 25.78,-23.13 19.66,-33.07 -2.39,-3.88 -7.58,-6.3 -13.25,-4.48z"/>
   <path class="fil2 str2" d="M314 205.74c-0.68,7.69 -7.39,13.85 -11.89,17.59 -3.22,2.68 -5.63,3.9 -8.41,5.78 -3.65,2.48 -4.54,2.25 -8.1,4.04 -2.79,1.6 3.05,2.07 -3.67,1.16 5.23,-0.94 5.43,3.21 10.15,3.85 5.39,0.74 3.7,-2.42 9.87,-2.48 3.63,-0.99 12.63,-9.48 14.82,-12.59 1.54,-2.2 4.37,-5.32 4.74,-9.19 0.38,-4.03 -1.08,-7.91 -4.16,-9.36 -0.79,-0.21 -0.82,-0.3 -1.66,-0.06 -0.64,0.18 -1.07,0.94 -1.13,0.7 -0.06,-0.21 -0.37,0.36 -0.56,0.54z"/>
   <path class="fil2 str2" d="M218.38 194.65c5.08,2.38 1.22,0.68 2.72,-0.16 -0.7,-2.9 -0.94,-4.7 0.59,-6.57l1.49 -1.68c0.5,-0.85 1.73,-4.43 2.14,-5.48l-2.22 -0.16c4.82,0.19 5.35,-4.85 11.43,-7.75 4.61,-2.2 9.55,-1.41 14.63,-1.71 -5.13,-9.7 -18.54,-5.34 -24.11,-0.73 -4.69,3.87 -14.67,17.86 -6.68,24.23z"/>
   <path class="fil2 str2" d="M301.94 235.7c-6.17,0.06 -4.48,3.21 -9.87,2.48 -4.72,-0.64 -4.92,-4.8 -10.15,-3.85 6.72,0.9 0.88,0.44 3.67,-1.16 -15.53,-1.78 2.1,-13.86 3.06,-17.79 0.37,-1.5 -8.13,-14.74 7.05,-20.94 9.19,-3.75 18.62,1.35 18.29,11.31 0.19,-0.18 0.5,-0.75 0.56,-0.54 0.06,0.24 0.49,-0.53 1.13,-0.7 0.84,-0.24 0.86,-0.15 1.66,0.06 -0.58,-2.76 -1.23,-5.76 -3.14,-7.94 -9.43,-10.76 -31.99,-5.62 -30.2,12.78 0.35,3.6 1.69,3.55 0.44,6.66 -1.1,2.75 -15,15.53 -2.54,19.66 6.95,2.3 6.7,5.92 13.78,3.95 0.8,-0.22 2.45,-1.01 2.96,-1.3l3.3 -2.67z"/>
   <path class="fil2 str2" d="M241.82 146.06c0.19,-0.17 0.59,-0.62 0.63,-0.44l1.54 -1.25c-0.44,-4.29 -1.02,1.42 -0.71,-2.45 0.09,-1.16 0.37,-1.8 1.28,-3.39l1.44 -1.79c6.02,-5.86 3.96,-6.19 8.93,-8.07 2.75,-1.04 6.2,-1.35 8.51,-2.31 2.71,2.77 0.19,-0.26 1.29,2.97l0.03 0.03 0.94 -2.54c-0.23,-1.69 -0.03,-2.43 -3.1,-3.77 -2.21,-0.96 -4.44,-1.22 -6.84,-1.1 -4.3,0.21 -7.72,2.16 -10.38,4.26 -5.61,4.43 -11.68,15.26 -3.55,19.86z"/>
   <path class="fil2 str2" d="M222.82 195.58c1.87,-5.48 4.17,-17.23 15.1,-21.32l7.29 -1.22c9.13,1.39 -3.57,16.42 -5,17.8 -3.83,3.73 -9.73,7.44 -17.4,4.74zm-4.44 -0.93c4.94,8.19 16.43,3.34 21.75,-0.63 4.59,-3.42 14.74,-16.55 9.04,-22.87 -5.08,0.3 -10.02,-0.49 -14.63,1.71 -6.08,2.9 -6.61,7.94 -11.43,7.75l2.22 0.16c-0.4,1.04 -1.64,4.63 -2.14,5.48l-1.49 1.68c-1.53,1.87 -1.29,3.67 -0.59,6.57 -1.51,0.84 2.35,2.54 -2.72,0.16z"/>
   <path class="fil2 str2" d="M129.5 228.39c2.98,-0.05 4.48,0.89 7.63,1.03 3.05,0.13 3.34,-0.76 6.63,-0.18l0.72 -2.56c-7.16,-0.51 -6.7,0.52 -15.08,-1.8l1.68 -2.83c-24.1,-3.13 -2.99,-21.85 1.39,-30.82 -1.85,-0.68 -0.05,0.63 -1.17,-1.35 -0.19,-0.33 -0.23,-1.06 -1.15,-2.34 -1.27,-1.76 -2.16,-2.56 -4.91,-2.71l4.47 4.78c-1.25,6.88 -10.31,12.19 -12.21,20.74 -3.05,13.75 11.34,12.03 11.99,18.05z"/>
   <path class="fil2 str2" d="M241.82 146.06c9.32,7.32 27.02,-5.4 25.1,-16.6 -0.46,-2.7 -0.54,-1.65 -1.22,-2.66l-0.94 2.54c-1.14,4.8 0.23,4.7 -2.78,8 -1.69,3.39 -3.68,5.39 -7.01,6.9 -2.09,0.95 -6.36,1.93 -9.24,0.76 0.01,-4.51 2.38,-6.77 4.76,-9.43 3.18,-3.56 5.23,-5.82 9.01,-5.02l0.24 -1.24 4.99 0c-1.1,-3.23 1.41,-0.19 -1.29,-2.97 -2.31,0.97 -5.77,1.28 -8.51,2.31 -4.97,1.88 -2.91,2.21 -8.93,8.07l-1.44 1.79c-0.91,1.59 -1.19,2.24 -1.28,3.39 -0.31,3.87 0.27,-1.84 0.71,2.45l-1.54 1.25c-0.04,-0.18 -0.43,0.27 -0.63,0.44z"/>
   <path class="fil2 str2" d="M366.78 175.8c-4.07,9.06 -5.93,16.84 4.01,20.26 1.08,-1.22 -1.15,-1.09 1.71,-0.95l-3.1 -2c2.61,-14.75 5.62,-9.38 -1.35,-18.86l-1.27 1.55z"/>
   <path class="fil2 str2" d="M379.84 122.4c-0.32,0.17 -0.67,0.37 -0.97,0.47l-4.07 0.42c1.58,-0.8 -0.17,-0.64 3,0.2 0.71,0.19 2.53,0.95 3.46,1.34l9.36 4.27c-0.15,6.1 -0.11,1.56 -1.51,3.08l0.15 -0.23c1.71,2.31 0.57,1.04 0.87,2.08 2.86,-2.41 9.26,-8.68 11.65,-11.72l-21.95 0.09z"/>
   <path class="fil2 str2" d="M122.73 181.71l0.02 2.07c0.37,0.48 -1.65,0.71 2.51,1.05 2.75,0.16 3.64,0.96 4.91,2.71 0.92,1.28 0.96,2 1.15,2.34 1.12,1.98 -0.68,0.67 1.17,1.35l6.04 -7.23c-4.35,-0.93 -9.78,-0.89 -15.79,-2.29z"/>
  </g>
  <path class="fil3 str3" d="M442.84 304.44c-0.46,7 0.45,13.3 -5.16,15.92 -4.41,2.05 -10.02,-0.2 -10.87,-5.17 -0.37,-2.16 0.87,-31.62 1.43,-34.28 1.35,-6.3 5.55,-6.51 12.15,-6.57 3.27,-0.03 13.78,-0.21 16.16,0.37 5.67,1.39 6.31,8.53 1.68,11.38 -3.73,2.3 -10.79,0.2 -14.88,1.5l0.01 3.75c5.78,1.45 12.59,-2.07 15.06,5.01 1.25,9.77 -8.45,8.13 -15.59,8.09z"/>
  <path class="fil3 str4" d="M491.36 296.1c5.25,-6.08 3.3,-21.78 14.91,-22.47 12.93,-0.77 11.56,12.4 12.96,21.85 1.15,7.71 6.71,25.58 -5.45,25.4 -12.39,-0.18 -5.89,-18.03 -9.52,-23.81 -4.17,7.85 -5.38,25.79 -14.99,23.93 -7.68,-1.49 -7.15,-19.54 -11.28,-23.85 -1.03,5.48 -1.54,16.38 -4.22,20.29 -3.8,5.55 -10.39,3.82 -13.69,-1 -0.38,-1.13 4.86,-36.8 10.94,-40.99 5.09,-3.51 12.91,-1.76 15.39,3.81 1.83,4.11 3.71,12.43 4.94,16.85z"/>
  <path class="fil3 str4" d="M326.89 290.13c4.62,0.64 10.46,1.06 14.41,-0.2 0.56,-4.21 -0.27,-9.54 2.29,-13.06 1.97,-2.7 6.66,-4.08 10.53,-2.07 5.76,2.99 2.83,15.93 2.66,23.13 -0.17,6.85 0.99,20.71 -6.01,22.74 -11.61,3.36 -10.41,-9.82 -9.78,-17.03l-15.14 -0.38c-0.71,3.57 0.95,22.08 -12.1,17.03 -6.68,-2.59 -3.97,-16.02 -3.67,-22.97 0.28,-6.39 -1.25,-19.82 5.04,-22.67 4.63,-2.1 11.49,-1.15 11.18,8.56 -0.03,1.04 -0.18,2.1 -0.13,3.12l0.73 3.81z"/>
  <path class="fil4 str4" d="M290.24 295.88c0.38,-4.16 0.18,-13.24 1.38,-16.78 1.37,-4.04 6.71,-6.88 11.62,-4.17 5.45,3.01 2.6,21.76 2.26,29 -0.23,4.88 0.35,11.84 -2.77,14.89 -9.74,9.51 -20.55,-14.28 -28.82,-20.54 -0.33,7.79 1.14,27.57 -11.91,21.88 -7.24,-3.15 -3.89,-21.05 -3.39,-29.07 0.24,-3.82 -0.26,-11.4 2.15,-14.57 8.24,-10.79 21.24,11.45 27.75,17.84 1.1,1.08 0.33,0.39 1.72,1.51z"/>
  <path class="fil4 str4" d="M238.72 286.05c0.21,-5.1 0.73,-9.95 5.15,-11.56 15.85,-5.78 10.48,20.38 9.81,34.86 -0.82,17.53 -14.43,11.99 -15.6,6.21 -0.79,-3.94 0.43,-24.5 0.64,-29.51z"/>
  <path class="fil4 str4" d="M182.58 289.98c2.62,1.92 5.66,0.89 8.83,1.21 4.12,0.42 5.29,2.09 7.04,3.89 -0.33,9.65 -5.98,8.39 -11.91,8.32 -5.19,-0.05 -3.91,-0.14 -4.81,3.64 6.63,2.39 12.51,-2.69 17.6,4.77 0.49,7.81 -4.07,8.7 -10.86,8.65 -25.55,-0.19 -22.96,3.33 -21.35,-34.06 0.3,-7.12 1.18,-11.46 7.66,-12.06 4.48,-0.42 14.2,-0.46 18.37,-0.16 9.53,0.7 11.74,13.51 -3.25,12.98 -9.59,-0.33 -6.58,-0.58 -7.32,2.82z"/>
  <path class="fil3 str4" d="M373.03 313.58c-1.87,7.21 -9.71,10.66 -14.51,4.59 -3.52,-4.45 2.53,-14.11 4.42,-18.13 5.02,-10.72 8.81,-27.63 21.84,-26.24 9.8,1.05 12.59,14.71 17.52,28.03 1.65,4.45 5.9,12.38 1.21,16.73 -5.44,5.05 -10.64,2.44 -13.41,-4.73l-17.06 -0.25z"/>
  <path class="fil4 str4" d="M218.52 307.2c4.97,1.31 13.54,-1.25 16.79,2.8 4.66,5.81 -1.84,10.43 -7.8,10.46 -30.73,0.19 -24.49,2.66 -23.92,-33.62 0.11,-6.91 1.21,-13.55 8.86,-12.93 7.8,0.63 7.22,6.86 6.83,13.6 -0.37,6.35 -0.48,12.87 -0.76,19.68z"/>
  <path class="fil4 str4" d="M130.85 298.71c-1.17,10.97 2.23,25.7 -13.41,21.02 -5.45,-3.52 -2.24,-40.59 0.52,-43.83 7.92,-9.27 20.78,11.31 28.66,19.95 1.11,-4.54 -1.71,-27.37 12.57,-21.24 4.81,2.07 4.07,6.87 3.85,12.41 -0.21,5.37 -0.38,10.27 -0.68,15.76 -0.25,4.49 0.64,11.98 -2.32,15.48 -7.09,8.41 -16.02,-4.4 -20.09,-9.54 -1.64,-2.07 -6.5,-8.31 -9.11,-10.02z"/>
  <path class="fil4 str4" d="M63.65 286.31c-4.93,5.89 -15.6,-3.89 -23.25,3.48 -6.08,5.85 -3.29,17.1 6.73,17.2 3.98,0.04 8.07,-2.16 12.07,-1.46 11.83,2.07 2.42,20.1 -19.54,14.01 -25.12,-6.96 -22.98,-44.08 8.73,-45.81 4.56,-0.25 9.74,0.1 13.5,2.68 2.93,2.01 4.78,6.28 1.75,9.89z"/>
  <path class="fil4 str4" d="M80.81 313.73c-2.16,2.74 -2.45,6.19 -6.83,6.95 -19.98,3.46 -0.23,-28.67 2.76,-35.64 6.54,-15.27 19.05,-13.09 23.75,-5.99 3.51,5.3 8.41,21.53 10.73,27.25 2,4.95 3.91,10.45 -1.92,13.63 -6.69,3.65 -9.44,-0.76 -11.87,-5.65 -4.26,-1.26 -12.08,-0.78 -16.62,-0.55z"/>
  <path class="fil4 str4" d="M301.55 365.75c-4.19,5.8 -1.87,0.38 -7.18,1.28l-1.39 20.84c4.82,-0.3 3.97,-1.07 4.2,-5.97 0.27,-5.85 -0.25,-7.68 2.47,-11.89 10.26,2.38 1.21,8.55 4.72,17.72 8.15,-0.05 -0.68,-8.95 6.55,-17.56 5.64,1.6 4.54,8.93 2.87,17.94l3.96 -0.6c0.67,-5.76 1.16,-15 0.3,-19.06 -4.71,-3.7 -6.07,-1.34 -9.72,0.59 -2.55,-2.05 -2.36,-2.3 -6.77,-3.28z"/>
  <path class="fil4 str4" d="M423.21 371.45c2.9,5.55 1.2,9.56 -1.39,13.87 -7.94,-2.02 -7.64,-9.15 -3.3,-14.34l4.69 0.47zm-10.03 -0.04c-1.68,8.65 -1.48,11.56 2.48,17.25 7.27,1.1 4.93,-2 8.86,-0.88 0.03,0.01 1.05,0.87 2.24,0.91 1.88,-3.22 1.72,-10.58 2,-14.42 0.37,-5.08 0.28,-9.82 0.64,-15.02l-3.31 -0.16 -0.75 7.51 -4.6 0.71c-1.29,0.16 -3.26,-1.31 -7.56,4.09z"/>
  <path class="fil4 str4" d="M152.16 368.52c4.09,0.57 5.38,3.13 5.06,7.73 -0.4,5.69 -1.99,6.44 -6.99,6.03 -2.49,-5.06 -3.07,-10 1.93,-13.75zm-5.24 16.84c9.12,2.21 5.09,0.27 8.64,-0.09 3.47,-0.35 1.4,1.33 4.81,0.91 0.46,-6.24 3.01,-24.95 0.18,-29.18 -3.29,1.38 -1.47,-3.14 -2.85,4.62 -0.15,0.86 -0.1,3.28 -0.29,4.72l-7.36 -1.7c-6.47,5.61 -6.51,12.49 -3.14,20.72z"/>
  <path class="fil4 str4" d="M379.45 370.86c8.14,-0.2 7.74,8.37 3.73,13.65l-5.27 -0.02c-0.91,-5.16 -1.76,-8.38 1.53,-13.63zm-4.14 -1.93c-2.47,8.95 -4.01,15.05 2.61,20.04 4.71,-0.15 3.91,-0.98 5.61,-1.21 0.73,-0.1 1.99,0.07 2.26,0.09 0.16,0.01 0.54,0.1 0.67,0.11 4.39,0.48 3.29,-15.37 3.41,-20.6 0.33,-7.14 1.22,-5.42 -1.23,-8.28 -2.67,3.01 -1.87,5.03 -2.92,9.28 -7.61,-2.44 -4.41,-1.21 -10.41,0.57z"/>
  <path class="fil4 str4" d="M213.36 369.58c0.9,-0.09 1.42,0.18 2.52,0.4 1.24,5.35 1.85,9.42 -2.38,13.09 -8.82,-1.21 -5.1,-9.97 -3.33,-12.73 1.81,-0.68 -0.43,-0.4 3.19,-0.76zm6.66 17.03c0.77,-6.53 -0.26,-25.16 2.22,-28.25l-4.29 -0.67 -0.42 9.35c-5.76,-1.91 -9.88,-3.78 -12.37,5.21 -2.01,7.29 -0.22,11.27 4.15,14.78 4.95,-0.27 3.73,-1.74 6.44,-1.59 3.73,0.21 -1.83,2.01 4.27,1.16z"/>
  <path class="fil4 str4" d="M129.83 381.88c-0.36,-5.74 2.03,-5.21 7.3,-5.57l-2.7 6.75 -4.6 -1.18zm0.02 -17.23l-3.19 4.15 3.41 1.72c2.42,-2.88 -0.34,-0.88 3.01,-2.83 4,1.83 2.9,1.13 3.76,4.34l-5.4 1.53c-1.05,0.47 -3.66,1.98 -5.37,2.91 -1,11.62 2.44,10.16 7.51,9.25 0.25,-0.05 1.3,-0.39 1.63,-0.4 1.93,-0.08 0.91,-0.15 2.41,0.6l2.82 0.39 0.18 -2.57 0.41 -16.32c-5.31,-4.05 -4.97,-2.86 -11.19,-2.77z"/>
  <path class="fil4 str4" d="M397.69 384.64c-0.09,-5.81 1.42,-5.77 6.79,-5.98 -0.58,5.42 -1.41,7.24 -6.79,5.98zm-1.22 -16.91l-0.5 5.1c3.65,-0.91 4.87,-3.22 8.64,-0.02 -2.87,6.55 -4.73,1.12 -8.91,5.12 -2.83,2.7 -2.33,6.86 -1.33,10.03 9.53,2.68 0.1,-1.19 13.78,0.75 0.12,-7.21 1.13,-16.57 -1.28,-21.46 -6.19,-0.75 -5.49,-0.33 -10.39,0.48z"/>
  <path class="fil4 str4" d="M180.12 381.67c-3.13,-5.67 -1.51,-7.12 0.71,-12.82 8.49,1.22 9.42,7.57 4.21,13.73l-4.92 -0.9zm4.35 5.67c4.28,-2.79 6.78,-4.94 7.28,-11.5 1.1,-14.36 -16.47,-15.56 -17.15,0.8 -0.31,7.52 2.73,9.67 9.87,10.7z"/>
  <path class="fil4 str4" d="M279.78 370.36c9.1,1.29 6.44,11.79 1.92,13.16 -6.01,1.82 -8.62,-7.89 -1.92,-13.16zm-2.86 -3.62c-5.67,6.69 -4.55,8.77 -3.89,17.76 4.69,2.66 3.38,4.27 9.91,3.33 3.61,-3.42 6.73,-4.95 6.42,-12.83 -0.23,-5.91 -3.38,-8.77 -9.63,-8.92l-2.8 0.66z"/>
  <path class="fil4 str4" d="M444.51 375.61c-3.31,1.24 -3.87,0.89 -8.09,0.6 2.17,-8.27 5.93,-6.91 8.09,-0.6zm2.69 7.81l-0.35 -0.14c-4.89,-0.39 -9.45,4.64 -10.42,-3.01 3.84,-1.56 7.17,-0.9 11.13,-0.49 0.64,-9.05 -0.44,-11.27 -8.58,-13.23 -2.69,2.39 -5.17,3.82 -6.17,9.42 -1.29,7.23 0.18,6.97 2.2,12.26 7.71,1.6 9.35,1.45 12.18,-4.81z"/>
  <path class="fil4 str4" d="M228.73 383.21c0.63,-5.79 1.09,-5.76 7.32,-5.92 -1.41,5.84 -1.49,7.78 -7.32,5.92zm-2.06 -13.93l0.62 1.91c4.66,-0.64 5.15,-5.77 8.8,0.9 -2,2.45 -1,2.23 -10.17,4.43 -0.97,4.14 -0.9,6.97 0.32,10.27 7.34,1.71 3.59,0.32 7.92,-0.54 3.18,-0.63 0.38,1.8 5.55,0.7 -0.57,-4.51 -0.31,-12.72 0.53,-18.19 -3.44,-2.36 -5.63,-3.22 -10.43,-2.68 -2.38,0.87 -1.97,0.45 -3.15,3.2z"/>
  <path class="fil4 str4" d="M88.35 379.46c1.49,-3.47 2.84,-3.68 7.13,-3.69 -0.71,5.19 -0.49,4.81 -4.67,7.12l-2.46 -3.43zm-0.32 -9.8c3.89,-2.74 1.85,-2.79 7.53,-0.99 -0.88,5.58 1.57,2.7 -2.97,4.4 -1.04,0.39 -3.52,0.55 -5.48,1.25 -2.78,4.02 -3,7.25 -0.08,11.1 6.43,1.18 3.57,-0.13 6.78,-0.65 3.45,-0.57 0.71,0.56 5.27,0.42l-0.53 -19.8c-6.75,-2.28 -9.43,-2.3 -12.95,3.47l2.43 0.8z"/>
  <path class="fil4 str4" d="M345.28 367.4l-1.29 20.54 3.22 0.4 0.47 -3.19c0.61,-7.23 -1.01,-12.98 5.79,-14.36 3.22,2.47 2.59,4.34 2.29,8.52 -0.68,9.44 -1.33,7.51 2.04,9.09l0.81 -1.76c1.33,-5.23 0.58,-10.94 1.6,-16.59 -7.89,-6.49 -5.28,-2.33 -10.21,-1.79l-3.65 -0.57c-0.27,-0.06 -0.71,-0.23 -1.08,-0.29z"/>
  <path class="fil4 str4" d="M323.91 366.51c1.01,8.76 -2.14,14.4 1.91,21.01 6.43,1.63 3.52,-0.15 6.77,-0.62 6.8,-0.97 0.52,2.89 5.67,0.32l1.46 -19.67 -3.89 0.24c-0.64,5.88 -0,10.62 -2.27,16.01l-3.68 0.62c-4.1,-3.2 -2.22,-12.54 -1.81,-17.22l-4.17 -0.69z"/>
  <path class="fil4 str4" d="M260.35 387.76c3.69,-0.03 4.36,-0.27 6.32,-2.66 3.1,-3.78 2.24,-2.68 0.89,-5.26 -4.49,0.97 -0.76,2.19 -6.56,3.85 -3.92,-2.3 -4.77,-5.87 -3.01,-10.39 2.53,-6.49 6.42,-1.14 8.25,-0.86 1.62,-1.58 2.91,3.38 1.53,-3.22 -0.38,-1.82 -1.7,-1.98 -3.06,-2.69 -5.69,-1.32 -6.86,0.28 -9.99,3.8 -2.27,8.06 -2.62,15.63 5.64,17.44z"/>
  <path class="fil4 str4" d="M113.72 374.29c-0.12,2.02 -0.58,6.04 -0.55,7.89 0.07,4.97 -0.32,2.98 4.05,3.98 0.39,-6.76 -0.2,-10.2 1.99,-16.05l5.2 -5.72c-7.54,0.1 -1.41,1.41 -10.11,0.31l-0.58 9.59z"/>
  <path class="fil2 str2" d="M378.74 300.71c1.68,0.25 1.46,0.46 3.33,0.36 0.29,-0.02 1.14,-0.11 1.42,-0.17 1.46,-0.31 1.51,-0.55 2.17,-0.85l-2.45 -10.08c-1.74,1.21 -1.6,1.17 -2.73,4.48 -0.72,2.12 -1.25,4.07 -1.75,6.26z"/>
  <path class="fil0 str0" d="M85.62 300.44l7.33 0.48c-0.51,-3.89 -1.66,-8.94 -3.24,-11.49l-4.09 11.01z"/>
  <path class="fil4 str4" d="M165.79 385.86l-0.01 -0.42 3.89 1.05 0.89 -17.75c-0.46,-5.73 0.84,-1.79 -1.74,-3.87 -2.42,1.78 -1.42,-2.64 -2.43,4.35l-0.6 16.64z"/>
  <path class="fil4 str4" d="M366.12 388.47c2.49,-1.16 2.38,2.97 2.81,-10.62 0.49,-15.21 1.3,-9.3 -1.71,-11.17 -2.9,3.39 -3.53,19.12 -1.1,21.78z"/>
  <path class="fil4 str4" d="M169.31 361.79c0.01,-0.01 3.06,0.8 1.58,-3.43 -0.96,-2.74 1.14,-0.78 -3.36,-2.22 -1.33,8.23 -2.02,3.51 1.77,5.64z"/>
  <polygon class="fil4 str4" points="366.26,363.3 369.37,363.92 370.4,358.91 366.33,358.74 "/>
  <path class="fil4 str4" d="M132.47 361.56c1.23,-0.26 3.34,0.87 4.61,-4.24l-0.17 -1.26c-2.69,0.76 -0.97,-0.71 -2.95,1.79 -0.93,1.18 -1.05,2.48 -1.5,3.7z"/>
 </g>
</svg>
