<?xml version="1.0" encoding="UTF-8"?>
<!DOCTYPE svg PUBLIC "-//W3C//DTD SVG 1.1//EN" "http://www.w3.org/Graphics/SVG/1.1/DTD/svg11.dtd">
<!-- Creator: CorelDRAW -->
<svg xmlns="http://www.w3.org/2000/svg" xml:space="preserve" width="50.2mm" height="50.1648mm" version="1.1" style="shape-rendering:geometricPrecision; text-rendering:geometricPrecision; image-rendering:optimizeQuality; fill-rule:evenodd; clip-rule:evenodd"
viewBox="0 0 252.94 252.76"
 xmlns:xlink="http://www.w3.org/1999/xlink"
 xmlns:xodm="http://www.corel.com/coreldraw/odm/2003">
 <defs>
  <style type="text/css">
   <![CDATA[
    .str0 {stroke:black;stroke-width:1.01;stroke-miterlimit:22.9256}
    .str1 {stroke:white;stroke-width:1.01;stroke-miterlimit:22.9256}
    .fil0 {fill:black}
    .fil1 {fill:white}
   ]]>
  </style>
 </defs>
 <g id="Camada_x0020_1">
  <metadata id="CorelCorpID_0Corel-Layer"/>
  <path class="fil0 str0" d="M0.5 126.47c0,20.55 4.94,37.26 11.17,51.81 7.52,17.57 19.93,32.15 33.97,44.75l8.98 6.77c4.94,3.51 14.41,9.05 20.03,11.46 88.61,37.94 177.77,-27.25 177.77,-114.79 0,-69.28 -56.67,-125.97 -125.97,-125.97 -69.31,0 -125.97,56.65 -125.97,125.97z"/>
  <path class="fil1 str1" d="M167.31 169.77l-3.44 0c-7.3,0 -13.84,-9.2 -16.41,-14.59 -7.7,-16.15 -7.68,-40.82 -0.16,-57.09 2.54,-5.5 9.19,-14.92 16.57,-14.92 5.32,0 9.82,0.78 13.86,5.82 2.46,3.07 4.72,6.21 6.25,9.98 7.24,17.86 7.29,36.8 0.14,54.63 -1.67,4.17 -3.61,6.72 -6.18,10.05 -1.77,2.29 -6.83,6.11 -10.62,6.11z"/>
  <path class="fil1 str1" d="M91.53 173.71c-15.52,0 -26.51,-4.81 -35.45,-13.75 -18.39,-18.4 -18.39,-48.57 0,-66.97 13.5,-13.5 35.77,-17.99 53.34,-9.5 23.6,11.41 33.65,37.51 23.24,62.46 -6.31,15.14 -24.14,27.76 -41.13,27.76z"/>
  <path class="fil1 str1" d="M194.37 131.39c0,-11.48 -0.19,-17.64 1.61,-29.39 4.57,-29.84 14.62,-12.06 14.62,20.53 0,7.75 -0.56,41.75 -7.59,43.62 -6.87,1.82 -8.65,-29.57 -8.65,-34.76z"/>
 </g>
</svg>
